<svg class="rich-terminal" viewBox="0 0 1385 879.5999999999999" xmlns="http://www.w3.org/2000/svg">
    <!-- Generated with Rich https://www.textualize.io -->
    <style>

    @font-face {
        font-family: "Fira Code";
        src: local("FiraCode-Regular"),
                url("https://cdnjs.cloudflare.com/ajax/libs/firacode/6.2.0/woff2/FiraCode-Regular.woff2") format("woff2"),
                url("https://cdnjs.cloudflare.com/ajax/libs/firacode/6.2.0/woff/FiraCode-Regular.woff") format("woff");
        font-style: normal;
        font-weight: 400;
    }
    @font-face {
        font-family: "Fira Code";
        src: local("FiraCode-Bold"),
                url("https://cdnjs.cloudflare.com/ajax/libs/firacode/6.2.0/woff2/FiraCode-Bold.woff2") format("woff2"),
                url("https://cdnjs.cloudflare.com/ajax/libs/firacode/6.2.0/woff/FiraCode-Bold.woff") format("woff");
        font-style: bold;
        font-weight: 700;
    }

    .terminal-1433787929-matrix {
        font-family: ui-monospace, SFMono-Regular, Menlo, monospace;
        font-size: 20px;
        line-height: 24.4px;
        font-variant-east-asian: full-width;
    }

    .terminal-1433787929-title {
        font-size: 18px;
        font-weight: bold;
        font-family: ui-sans-serif, -apple-system, Helvetica Neue, sans-serif;
    }

    .terminal-1433787929-r1 { fill: #c5c8c6 }
.terminal-1433787929-r2 { fill: #26262f }
.terminal-1433787929-r3 { fill: #e9e9ef;font-weight: bold }
.terminal-1433787929-r4 { fill: #8b7cff }
.terminal-1433787929-r5 { fill: #5fd39a }
.terminal-1433787929-r6 { fill: #e1b341 }
.terminal-1433787929-r7 { fill: #8a8a97 }
.terminal-1433787929-r8 { fill: #8a8a97;font-weight: bold }
.terminal-1433787929-r9 { fill: #cdb7ff }
.terminal-1433787929-r10 { fill: #24242a }
.terminal-1433787929-r11 { fill: #8f81fe;font-weight: bold }
.terminal-1433787929-r12 { fill: #4744be }
.terminal-1433787929-r13 { fill: #000008 }
.terminal-1433787929-r14 { fill: #e9e9ef }
    </style>

    <defs>
    <clipPath id="terminal-1433787929-clip-terminal">
      <rect x="0" y="0" width="1365.3999999999999" height="828.5999999999999" />
    </clipPath>
    <clipPath id="terminal-1433787929-line-0">
    <rect x="0" y="1.5" width="1366.4" height="24.65"/>
            </clipPath>
<clipPath id="terminal-1433787929-line-1">
    <rect x="0" y="25.9" width="1366.4" height="24.65"/>
            </clipPath>
<clipPath id="terminal-1433787929-line-2">
    <rect x="0" y="50.3" width="1366.4" height="24.65"/>
            </clipPath>
<clipPath id="terminal-1433787929-line-3">
    <rect x="0" y="74.7" width="1366.4" height="24.65"/>
            </clipPath>
<clipPath id="terminal-1433787929-line-4">
    <rect x="0" y="99.1" width="1366.4" height="24.65"/>
            </clipPath>
<clipPath id="terminal-1433787929-line-5">
    <rect x="0" y="123.5" width="1366.4" height="24.65"/>
            </clipPath>
<clipPath id="terminal-1433787929-line-6">
    <rect x="0" y="147.9" width="1366.4" height="24.65"/>
            </clipPath>
<clipPath id="terminal-1433787929-line-7">
    <rect x="0" y="172.3" width="1366.4" height="24.65"/>
            </clipPath>
<clipPath id="terminal-1433787929-line-8">
    <rect x="0" y="196.7" width="1366.4" height="24.65"/>
            </clipPath>
<clipPath id="terminal-1433787929-line-9">
    <rect x="0" y="221.1" width="1366.4" height="24.65"/>
            </clipPath>
<clipPath id="terminal-1433787929-line-10">
    <rect x="0" y="245.5" width="1366.4" height="24.65"/>
            </clipPath>
<clipPath id="terminal-1433787929-line-11">
    <rect x="0" y="269.9" width="1366.4" height="24.65"/>
            </clipPath>
<clipPath id="terminal-1433787929-line-12">
    <rect x="0" y="294.3" width="1366.4" height="24.65"/>
            </clipPath>
<clipPath id="terminal-1433787929-line-13">
    <rect x="0" y="318.7" width="1366.4" height="24.65"/>
            </clipPath>
<clipPath id="terminal-1433787929-line-14">
    <rect x="0" y="343.1" width="1366.4" height="24.65"/>
            </clipPath>
<clipPath id="terminal-1433787929-line-15">
    <rect x="0" y="367.5" width="1366.4" height="24.65"/>
            </clipPath>
<clipPath id="terminal-1433787929-line-16">
    <rect x="0" y="391.9" width="1366.4" height="24.65"/>
            </clipPath>
<clipPath id="terminal-1433787929-line-17">
    <rect x="0" y="416.3" width="1366.4" height="24.65"/>
            </clipPath>
<clipPath id="terminal-1433787929-line-18">
    <rect x="0" y="440.7" width="1366.4" height="24.65"/>
            </clipPath>
<clipPath id="terminal-1433787929-line-19">
    <rect x="0" y="465.1" width="1366.4" height="24.65"/>
            </clipPath>
<clipPath id="terminal-1433787929-line-20">
    <rect x="0" y="489.5" width="1366.4" height="24.65"/>
            </clipPath>
<clipPath id="terminal-1433787929-line-21">
    <rect x="0" y="513.9" width="1366.4" height="24.65"/>
            </clipPath>
<clipPath id="terminal-1433787929-line-22">
    <rect x="0" y="538.3" width="1366.4" height="24.65"/>
            </clipPath>
<clipPath id="terminal-1433787929-line-23">
    <rect x="0" y="562.7" width="1366.4" height="24.65"/>
            </clipPath>
<clipPath id="terminal-1433787929-line-24">
    <rect x="0" y="587.1" width="1366.4" height="24.65"/>
            </clipPath>
<clipPath id="terminal-1433787929-line-25">
    <rect x="0" y="611.5" width="1366.4" height="24.65"/>
            </clipPath>
<clipPath id="terminal-1433787929-line-26">
    <rect x="0" y="635.9" width="1366.4" height="24.65"/>
            </clipPath>
<clipPath id="terminal-1433787929-line-27">
    <rect x="0" y="660.3" width="1366.4" height="24.65"/>
            </clipPath>
<clipPath id="terminal-1433787929-line-28">
    <rect x="0" y="684.7" width="1366.4" height="24.65"/>
            </clipPath>
<clipPath id="terminal-1433787929-line-29">
    <rect x="0" y="709.1" width="1366.4" height="24.65"/>
            </clipPath>
<clipPath id="terminal-1433787929-line-30">
    <rect x="0" y="733.5" width="1366.4" height="24.65"/>
            </clipPath>
<clipPath id="terminal-1433787929-line-31">
    <rect x="0" y="757.9" width="1366.4" height="24.65"/>
            </clipPath>
<clipPath id="terminal-1433787929-line-32">
    <rect x="0" y="782.3" width="1366.4" height="24.65"/>
            </clipPath>
    </defs>

    <rect fill="#292929" stroke="rgba(255,255,255,0.35)" stroke-width="1" x="1" y="1" width="1383" height="877.6" rx="8"/><text class="terminal-1433787929-title" fill="#c5c8c6" text-anchor="middle" x="691" y="27">Isolinear</text>
            <g transform="translate(26,22)">
            <circle cx="0" cy="0" r="7" fill="#ff5f57"/>
            <circle cx="22" cy="0" r="7" fill="#febc2e"/>
            <circle cx="44" cy="0" r="7" fill="#28c840"/>
            </g>
        
    <g transform="translate(9, 41)" clip-path="url(#terminal-1433787929-clip-terminal)">
    <rect fill="#0d0d11" x="0" y="1.5" width="1366.4" height="24.65" shape-rendering="crispEdges"/><rect fill="#0d0d11" x="0" y="25.9" width="1366.4" height="24.65" shape-rendering="crispEdges"/><rect fill="#0d0d11" x="0" y="50.3" width="1366.4" height="24.65" shape-rendering="crispEdges"/><rect fill="#0d0d11" x="0" y="74.7" width="1366.4" height="24.65" shape-rendering="crispEdges"/><rect fill="#0d0d11" x="0" y="99.1" width="1366.4" height="24.65" shape-rendering="crispEdges"/><rect fill="#0d0d11" x="0" y="123.5" width="1366.4" height="24.65" shape-rendering="crispEdges"/><rect fill="#0d0d11" x="0" y="147.9" width="1366.4" height="24.65" shape-rendering="crispEdges"/><rect fill="#0d0d11" x="0" y="172.3" width="1366.4" height="24.65" shape-rendering="crispEdges"/><rect fill="#0d0d11" x="0" y="196.7" width="292.8" height="24.65" shape-rendering="crispEdges"/><rect fill="#15151b" x="292.8" y="196.7" width="12.2" height="24.65" shape-rendering="crispEdges"/><rect fill="#15151b" x="305" y="196.7" width="756.4" height="24.65" shape-rendering="crispEdges"/><rect fill="#15151b" x="1061.4" y="196.7" width="12.2" height="24.65" shape-rendering="crispEdges"/><rect fill="#0d0d11" x="1073.6" y="196.7" width="292.8" height="24.65" shape-rendering="crispEdges"/><rect fill="#0d0d11" x="0" y="221.1" width="292.8" height="24.65" shape-rendering="crispEdges"/><rect fill="#15151b" x="292.8" y="221.1" width="12.2" height="24.65" shape-rendering="crispEdges"/><rect fill="#15151b" x="305" y="221.1" width="756.4" height="24.65" shape-rendering="crispEdges"/><rect fill="#15151b" x="1061.4" y="221.1" width="12.2" height="24.65" shape-rendering="crispEdges"/><rect fill="#0d0d11" x="1073.6" y="221.1" width="292.8" height="24.65" shape-rendering="crispEdges"/><rect fill="#0d0d11" x="0" y="245.5" width="292.8" height="24.65" shape-rendering="crispEdges"/><rect fill="#15151b" x="292.8" y="245.5" width="12.2" height="24.65" shape-rendering="crispEdges"/><rect fill="#15151b" x="305" y="245.5" width="756.4" height="24.65" shape-rendering="crispEdges"/><rect fill="#15151b" x="1061.4" y="245.5" width="12.2" height="24.65" shape-rendering="crispEdges"/><rect fill="#0d0d11" x="1073.6" y="245.5" width="292.8" height="24.65" shape-rendering="crispEdges"/><rect fill="#0d0d11" x="0" y="269.9" width="292.8" height="24.65" shape-rendering="crispEdges"/><rect fill="#15151b" x="292.8" y="269.9" width="12.2" height="24.65" shape-rendering="crispEdges"/><rect fill="#15151b" x="305" y="269.9" width="48.8" height="24.65" shape-rendering="crispEdges"/><rect fill="#15151b" x="353.8" y="269.9" width="268.4" height="24.65" shape-rendering="crispEdges"/><rect fill="#15151b" x="622.2" y="269.9" width="109.8" height="24.65" shape-rendering="crispEdges"/><rect fill="#15151b" x="732" y="269.9" width="280.6" height="24.65" shape-rendering="crispEdges"/><rect fill="#15151b" x="1012.6" y="269.9" width="48.8" height="24.65" shape-rendering="crispEdges"/><rect fill="#15151b" x="1061.4" y="269.9" width="12.2" height="24.65" shape-rendering="crispEdges"/><rect fill="#0d0d11" x="1073.6" y="269.9" width="292.8" height="24.65" shape-rendering="crispEdges"/><rect fill="#0d0d11" x="0" y="294.3" width="292.8" height="24.65" shape-rendering="crispEdges"/><rect fill="#15151b" x="292.8" y="294.3" width="12.2" height="24.65" shape-rendering="crispEdges"/><rect fill="#15151b" x="305" y="294.3" width="48.8" height="24.65" shape-rendering="crispEdges"/><rect fill="#15151b" x="353.8" y="294.3" width="292.8" height="24.65" shape-rendering="crispEdges"/><rect fill="#15151b" x="646.6" y="294.3" width="24.4" height="24.65" shape-rendering="crispEdges"/><rect fill="#15151b" x="671" y="294.3" width="24.4" height="24.65" shape-rendering="crispEdges"/><rect fill="#15151b" x="695.4" y="294.3" width="24.4" height="24.65" shape-rendering="crispEdges"/><rect fill="#15151b" x="719.8" y="294.3" width="292.8" height="24.65" shape-rendering="crispEdges"/><rect fill="#15151b" x="1012.6" y="294.3" width="48.8" height="24.65" shape-rendering="crispEdges"/><rect fill="#15151b" x="1061.4" y="294.3" width="12.2" height="24.65" shape-rendering="crispEdges"/><rect fill="#0d0d11" x="1073.6" y="294.3" width="292.8" height="24.65" shape-rendering="crispEdges"/><rect fill="#0d0d11" x="0" y="318.7" width="292.8" height="24.65" shape-rendering="crispEdges"/><rect fill="#15151b" x="292.8" y="318.7" width="12.2" height="24.65" shape-rendering="crispEdges"/><rect fill="#15151b" x="305" y="318.7" width="48.8" height="24.65" shape-rendering="crispEdges"/><rect fill="#15151b" x="353.8" y="318.7" width="658.8" height="24.65" shape-rendering="crispEdges"/><rect fill="#15151b" x="1012.6" y="318.7" width="48.8" height="24.65" shape-rendering="crispEdges"/><rect fill="#15151b" x="1061.4" y="318.7" width="12.2" height="24.65" shape-rendering="crispEdges"/><rect fill="#0d0d11" x="1073.6" y="318.7" width="292.8" height="24.65" shape-rendering="crispEdges"/><rect fill="#0d0d11" x="0" y="343.1" width="292.8" height="24.65" shape-rendering="crispEdges"/><rect fill="#15151b" x="292.8" y="343.1" width="12.2" height="24.65" shape-rendering="crispEdges"/><rect fill="#15151b" x="305" y="343.1" width="48.8" height="24.65" shape-rendering="crispEdges"/><rect fill="#15151b" x="353.8" y="343.1" width="158.6" height="24.65" shape-rendering="crispEdges"/><rect fill="#15151b" x="512.4" y="343.1" width="341.6" height="24.65" shape-rendering="crispEdges"/><rect fill="#15151b" x="854" y="343.1" width="158.6" height="24.65" shape-rendering="crispEdges"/><rect fill="#15151b" x="1012.6" y="343.1" width="48.8" height="24.65" shape-rendering="crispEdges"/><rect fill="#15151b" x="1061.4" y="343.1" width="12.2" height="24.65" shape-rendering="crispEdges"/><rect fill="#0d0d11" x="1073.6" y="343.1" width="292.8" height="24.65" shape-rendering="crispEdges"/><rect fill="#0d0d11" x="0" y="367.5" width="292.8" height="24.65" shape-rendering="crispEdges"/><rect fill="#15151b" x="292.8" y="367.5" width="12.2" height="24.65" shape-rendering="crispEdges"/><rect fill="#15151b" x="305" y="367.5" width="48.8" height="24.65" shape-rendering="crispEdges"/><rect fill="#15151b" x="353.8" y="367.5" width="658.8" height="24.65" shape-rendering="crispEdges"/><rect fill="#15151b" x="1012.6" y="367.5" width="48.8" height="24.65" shape-rendering="crispEdges"/><rect fill="#15151b" x="1061.4" y="367.5" width="12.2" height="24.65" shape-rendering="crispEdges"/><rect fill="#0d0d11" x="1073.6" y="367.5" width="292.8" height="24.65" shape-rendering="crispEdges"/><rect fill="#0d0d11" x="0" y="391.9" width="292.8" height="24.65" shape-rendering="crispEdges"/><rect fill="#15151b" x="292.8" y="391.9" width="12.2" height="24.65" shape-rendering="crispEdges"/><rect fill="#15151b" x="305" y="391.9" width="48.8" height="24.65" shape-rendering="crispEdges"/><rect fill="#15151b" x="353.8" y="391.9" width="85.4" height="24.65" shape-rendering="crispEdges"/><rect fill="#15151b" x="439.2" y="391.9" width="573.4" height="24.65" shape-rendering="crispEdges"/><rect fill="#15151b" x="1012.6" y="391.9" width="48.8" height="24.65" shape-rendering="crispEdges"/><rect fill="#15151b" x="1061.4" y="391.9" width="12.2" height="24.65" shape-rendering="crispEdges"/><rect fill="#0d0d11" x="1073.6" y="391.9" width="292.8" height="24.65" shape-rendering="crispEdges"/><rect fill="#0d0d11" x="0" y="416.3" width="292.8" height="24.65" shape-rendering="crispEdges"/><rect fill="#15151b" x="292.8" y="416.3" width="12.2" height="24.65" shape-rendering="crispEdges"/><rect fill="#15151b" x="305" y="416.3" width="48.8" height="24.65" shape-rendering="crispEdges"/><rect fill="#15151b" x="353.8" y="416.3" width="658.8" height="24.65" shape-rendering="crispEdges"/><rect fill="#15151b" x="1012.6" y="416.3" width="48.8" height="24.65" shape-rendering="crispEdges"/><rect fill="#15151b" x="1061.4" y="416.3" width="12.2" height="24.65" shape-rendering="crispEdges"/><rect fill="#0d0d11" x="1073.6" y="416.3" width="292.8" height="24.65" shape-rendering="crispEdges"/><rect fill="#0d0d11" x="0" y="440.7" width="292.8" height="24.65" shape-rendering="crispEdges"/><rect fill="#15151b" x="292.8" y="440.7" width="12.2" height="24.65" shape-rendering="crispEdges"/><rect fill="#15151b" x="305" y="440.7" width="48.8" height="24.65" shape-rendering="crispEdges"/><rect fill="#15151b" x="353.8" y="440.7" width="12.2" height="24.65" shape-rendering="crispEdges"/><rect fill="#8f81fe" x="366" y="440.7" width="195.2" height="24.65" shape-rendering="crispEdges"/><rect fill="#15151b" x="561.2" y="440.7" width="12.2" height="24.65" shape-rendering="crispEdges"/><rect fill="#15151b" x="573.4" y="440.7" width="268.4" height="24.65" shape-rendering="crispEdges"/><rect fill="#15151b" x="841.8" y="440.7" width="12.2" height="24.65" shape-rendering="crispEdges"/><rect fill="#15151b" x="854" y="440.7" width="158.6" height="24.65" shape-rendering="crispEdges"/><rect fill="#15151b" x="1012.6" y="440.7" width="48.8" height="24.65" shape-rendering="crispEdges"/><rect fill="#15151b" x="1061.4" y="440.7" width="12.2" height="24.65" shape-rendering="crispEdges"/><rect fill="#0d0d11" x="1073.6" y="440.7" width="292.8" height="24.65" shape-rendering="crispEdges"/><rect fill="#0d0d11" x="0" y="465.1" width="292.8" height="24.65" shape-rendering="crispEdges"/><rect fill="#15151b" x="292.8" y="465.1" width="12.2" height="24.65" shape-rendering="crispEdges"/><rect fill="#15151b" x="305" y="465.1" width="48.8" height="24.65" shape-rendering="crispEdges"/><rect fill="#15151b" x="353.8" y="465.1" width="12.2" height="24.65" shape-rendering="crispEdges"/><rect fill="#121021" x="366" y="465.1" width="183" height="24.65" shape-rendering="crispEdges"/><rect fill="#8f81fe" x="549" y="465.1" width="12.2" height="24.65" shape-rendering="crispEdges"/><rect fill="#15151b" x="561.2" y="465.1" width="12.2" height="24.65" shape-rendering="crispEdges"/><rect fill="#15151b" x="573.4" y="465.1" width="268.4" height="24.65" shape-rendering="crispEdges"/><rect fill="#15151b" x="841.8" y="465.1" width="12.2" height="24.65" shape-rendering="crispEdges"/><rect fill="#15151b" x="854" y="465.1" width="61" height="24.65" shape-rendering="crispEdges"/><rect fill="#15151b" x="915" y="465.1" width="73.2" height="24.65" shape-rendering="crispEdges"/><rect fill="#15151b" x="988.2" y="465.1" width="24.4" height="24.65" shape-rendering="crispEdges"/><rect fill="#15151b" x="1012.6" y="465.1" width="48.8" height="24.65" shape-rendering="crispEdges"/><rect fill="#15151b" x="1061.4" y="465.1" width="12.2" height="24.65" shape-rendering="crispEdges"/><rect fill="#0d0d11" x="1073.6" y="465.1" width="292.8" height="24.65" shape-rendering="crispEdges"/><rect fill="#0d0d11" x="0" y="489.5" width="292.8" height="24.65" shape-rendering="crispEdges"/><rect fill="#15151b" x="292.8" y="489.5" width="12.2" height="24.65" shape-rendering="crispEdges"/><rect fill="#15151b" x="305" y="489.5" width="48.8" height="24.65" shape-rendering="crispEdges"/><rect fill="#15151b" x="353.8" y="489.5" width="12.2" height="24.65" shape-rendering="crispEdges"/><rect fill="#8f81fe" x="366" y="489.5" width="195.2" height="24.65" shape-rendering="crispEdges"/><rect fill="#15151b" x="561.2" y="489.5" width="12.2" height="24.65" shape-rendering="crispEdges"/><rect fill="#15151b" x="573.4" y="489.5" width="268.4" height="24.65" shape-rendering="crispEdges"/><rect fill="#15151b" x="841.8" y="489.5" width="12.2" height="24.65" shape-rendering="crispEdges"/><rect fill="#15151b" x="854" y="489.5" width="158.6" height="24.65" shape-rendering="crispEdges"/><rect fill="#15151b" x="1012.6" y="489.5" width="48.8" height="24.65" shape-rendering="crispEdges"/><rect fill="#15151b" x="1061.4" y="489.5" width="12.2" height="24.65" shape-rendering="crispEdges"/><rect fill="#0d0d11" x="1073.6" y="489.5" width="292.8" height="24.65" shape-rendering="crispEdges"/><rect fill="#0d0d11" x="0" y="513.9" width="292.8" height="24.65" shape-rendering="crispEdges"/><rect fill="#15151b" x="292.8" y="513.9" width="12.2" height="24.65" shape-rendering="crispEdges"/><rect fill="#15151b" x="305" y="513.9" width="48.8" height="24.65" shape-rendering="crispEdges"/><rect fill="#15151b" x="353.8" y="513.9" width="658.8" height="24.65" shape-rendering="crispEdges"/><rect fill="#15151b" x="1012.6" y="513.9" width="48.8" height="24.65" shape-rendering="crispEdges"/><rect fill="#15151b" x="1061.4" y="513.9" width="12.2" height="24.65" shape-rendering="crispEdges"/><rect fill="#0d0d11" x="1073.6" y="513.9" width="292.8" height="24.65" shape-rendering="crispEdges"/><rect fill="#0d0d11" x="0" y="538.3" width="292.8" height="24.65" shape-rendering="crispEdges"/><rect fill="#15151b" x="292.8" y="538.3" width="12.2" height="24.65" shape-rendering="crispEdges"/><rect fill="#15151b" x="305" y="538.3" width="48.8" height="24.65" shape-rendering="crispEdges"/><rect fill="#15151b" x="353.8" y="538.3" width="329.4" height="24.65" shape-rendering="crispEdges"/><rect fill="#15151b" x="683.2" y="538.3" width="0" height="24.65" shape-rendering="crispEdges"/><rect fill="#15151b" x="683.2" y="538.3" width="329.4" height="24.65" shape-rendering="crispEdges"/><rect fill="#15151b" x="1012.6" y="538.3" width="48.8" height="24.65" shape-rendering="crispEdges"/><rect fill="#15151b" x="1061.4" y="538.3" width="12.2" height="24.65" shape-rendering="crispEdges"/><rect fill="#0d0d11" x="1073.6" y="538.3" width="292.8" height="24.65" shape-rendering="crispEdges"/><rect fill="#0d0d11" x="0" y="562.7" width="292.8" height="24.65" shape-rendering="crispEdges"/><rect fill="#15151b" x="292.8" y="562.7" width="12.2" height="24.65" shape-rendering="crispEdges"/><rect fill="#15151b" x="305" y="562.7" width="756.4" height="24.65" shape-rendering="crispEdges"/><rect fill="#15151b" x="1061.4" y="562.7" width="12.2" height="24.65" shape-rendering="crispEdges"/><rect fill="#0d0d11" x="1073.6" y="562.7" width="292.8" height="24.65" shape-rendering="crispEdges"/><rect fill="#0d0d11" x="0" y="587.1" width="292.8" height="24.65" shape-rendering="crispEdges"/><rect fill="#15151b" x="292.8" y="587.1" width="12.2" height="24.65" shape-rendering="crispEdges"/><rect fill="#15151b" x="305" y="587.1" width="756.4" height="24.65" shape-rendering="crispEdges"/><rect fill="#15151b" x="1061.4" y="587.1" width="12.2" height="24.65" shape-rendering="crispEdges"/><rect fill="#0d0d11" x="1073.6" y="587.1" width="292.8" height="24.65" shape-rendering="crispEdges"/><rect fill="#0d0d11" x="0" y="611.5" width="292.8" height="24.65" shape-rendering="crispEdges"/><rect fill="#15151b" x="292.8" y="611.5" width="12.2" height="24.65" shape-rendering="crispEdges"/><rect fill="#15151b" x="305" y="611.5" width="756.4" height="24.65" shape-rendering="crispEdges"/><rect fill="#15151b" x="1061.4" y="611.5" width="12.2" height="24.65" shape-rendering="crispEdges"/><rect fill="#0d0d11" x="1073.6" y="611.5" width="292.8" height="24.65" shape-rendering="crispEdges"/><rect fill="#0d0d11" x="0" y="635.9" width="1366.4" height="24.65" shape-rendering="crispEdges"/><rect fill="#0d0d11" x="0" y="660.3" width="1366.4" height="24.65" shape-rendering="crispEdges"/><rect fill="#0d0d11" x="0" y="684.7" width="1366.4" height="24.65" shape-rendering="crispEdges"/><rect fill="#0d0d11" x="0" y="709.1" width="1366.4" height="24.65" shape-rendering="crispEdges"/><rect fill="#0d0d11" x="0" y="733.5" width="1366.4" height="24.65" shape-rendering="crispEdges"/><rect fill="#0d0d11" x="0" y="757.9" width="1366.4" height="24.65" shape-rendering="crispEdges"/><rect fill="#0d0d11" x="0" y="782.3" width="1366.4" height="24.65" shape-rendering="crispEdges"/><rect fill="#0d0d11" x="0" y="806.7" width="1366.4" height="24.65" shape-rendering="crispEdges"/>
    <g class="terminal-1433787929-matrix">
    <text class="terminal-1433787929-r1" x="1366.4" y="20" textLength="12.2" clip-path="url(#terminal-1433787929-line-0)">
</text><text class="terminal-1433787929-r1" x="1366.4" y="44.4" textLength="12.2" clip-path="url(#terminal-1433787929-line-1)">
</text><text class="terminal-1433787929-r1" x="1366.4" y="68.8" textLength="12.2" clip-path="url(#terminal-1433787929-line-2)">
</text><text class="terminal-1433787929-r1" x="1366.4" y="93.2" textLength="12.2" clip-path="url(#terminal-1433787929-line-3)">
</text><text class="terminal-1433787929-r1" x="1366.4" y="117.6" textLength="12.2" clip-path="url(#terminal-1433787929-line-4)">
</text><text class="terminal-1433787929-r1" x="1366.4" y="142" textLength="12.2" clip-path="url(#terminal-1433787929-line-5)">
</text><text class="terminal-1433787929-r1" x="1366.4" y="166.4" textLength="12.2" clip-path="url(#terminal-1433787929-line-6)">
</text><text class="terminal-1433787929-r1" x="1366.4" y="190.8" textLength="12.2" clip-path="url(#terminal-1433787929-line-7)">
</text><text class="terminal-1433787929-r2" x="292.8" y="215.2" textLength="12.2" clip-path="url(#terminal-1433787929-line-8)">╭</text><text class="terminal-1433787929-r2" x="305" y="215.2" textLength="756.4" clip-path="url(#terminal-1433787929-line-8)">──────────────────────────────────────────────────────────────</text><text class="terminal-1433787929-r2" x="1061.4" y="215.2" textLength="12.2" clip-path="url(#terminal-1433787929-line-8)">╮</text><text class="terminal-1433787929-r1" x="1366.4" y="215.2" textLength="12.2" clip-path="url(#terminal-1433787929-line-8)">
</text><text class="terminal-1433787929-r2" x="292.8" y="239.6" textLength="12.2" clip-path="url(#terminal-1433787929-line-9)">│</text><text class="terminal-1433787929-r2" x="1061.4" y="239.6" textLength="12.2" clip-path="url(#terminal-1433787929-line-9)">│</text><text class="terminal-1433787929-r1" x="1366.4" y="239.6" textLength="12.2" clip-path="url(#terminal-1433787929-line-9)">
</text><text class="terminal-1433787929-r2" x="292.8" y="264" textLength="12.2" clip-path="url(#terminal-1433787929-line-10)">│</text><text class="terminal-1433787929-r2" x="1061.4" y="264" textLength="12.2" clip-path="url(#terminal-1433787929-line-10)">│</text><text class="terminal-1433787929-r1" x="1366.4" y="264" textLength="12.2" clip-path="url(#terminal-1433787929-line-10)">
</text><text class="terminal-1433787929-r2" x="292.8" y="288.4" textLength="12.2" clip-path="url(#terminal-1433787929-line-11)">│</text><text class="terminal-1433787929-r3" x="622.2" y="288.4" textLength="109.8" clip-path="url(#terminal-1433787929-line-11)">Isolinear</text><text class="terminal-1433787929-r2" x="1061.4" y="288.4" textLength="12.2" clip-path="url(#terminal-1433787929-line-11)">│</text><text class="terminal-1433787929-r1" x="1366.4" y="288.4" textLength="12.2" clip-path="url(#terminal-1433787929-line-11)">
</text><text class="terminal-1433787929-r2" x="292.8" y="312.8" textLength="12.2" clip-path="url(#terminal-1433787929-line-12)">│</text><text class="terminal-1433787929-r4" x="646.6" y="312.8" textLength="24.4" clip-path="url(#terminal-1433787929-line-12)">▂▂</text><text class="terminal-1433787929-r5" x="671" y="312.8" textLength="24.4" clip-path="url(#terminal-1433787929-line-12)">▂▂</text><text class="terminal-1433787929-r6" x="695.4" y="312.8" textLength="24.4" clip-path="url(#terminal-1433787929-line-12)">▂▂</text><text class="terminal-1433787929-r2" x="1061.4" y="312.8" textLength="12.2" clip-path="url(#terminal-1433787929-line-12)">│</text><text class="terminal-1433787929-r1" x="1366.4" y="312.8" textLength="12.2" clip-path="url(#terminal-1433787929-line-12)">
</text><text class="terminal-1433787929-r2" x="292.8" y="337.2" textLength="12.2" clip-path="url(#terminal-1433787929-line-13)">│</text><text class="terminal-1433787929-r2" x="1061.4" y="337.2" textLength="12.2" clip-path="url(#terminal-1433787929-line-13)">│</text><text class="terminal-1433787929-r1" x="1366.4" y="337.2" textLength="12.2" clip-path="url(#terminal-1433787929-line-13)">
</text><text class="terminal-1433787929-r2" x="292.8" y="361.6" textLength="12.2" clip-path="url(#terminal-1433787929-line-14)">│</text><text class="terminal-1433787929-r7" x="512.4" y="361.6" textLength="341.6" clip-path="url(#terminal-1433787929-line-14)">Databricks&#160;secret&#160;management</text><text class="terminal-1433787929-r2" x="1061.4" y="361.6" textLength="12.2" clip-path="url(#terminal-1433787929-line-14)">│</text><text class="terminal-1433787929-r1" x="1366.4" y="361.6" textLength="12.2" clip-path="url(#terminal-1433787929-line-14)">
</text><text class="terminal-1433787929-r2" x="292.8" y="386" textLength="12.2" clip-path="url(#terminal-1433787929-line-15)">│</text><text class="terminal-1433787929-r2" x="1061.4" y="386" textLength="12.2" clip-path="url(#terminal-1433787929-line-15)">│</text><text class="terminal-1433787929-r1" x="1366.4" y="386" textLength="12.2" clip-path="url(#terminal-1433787929-line-15)">
</text><text class="terminal-1433787929-r2" x="292.8" y="410.4" textLength="12.2" clip-path="url(#terminal-1433787929-line-16)">│</text><text class="terminal-1433787929-r8" x="353.8" y="410.4" textLength="85.4" clip-path="url(#terminal-1433787929-line-16)">CONNECT</text><text class="terminal-1433787929-r2" x="1061.4" y="410.4" textLength="12.2" clip-path="url(#terminal-1433787929-line-16)">│</text><text class="terminal-1433787929-r1" x="1366.4" y="410.4" textLength="12.2" clip-path="url(#terminal-1433787929-line-16)">
</text><text class="terminal-1433787929-r2" x="292.8" y="434.8" textLength="12.2" clip-path="url(#terminal-1433787929-line-17)">│</text><text class="terminal-1433787929-r2" x="1061.4" y="434.8" textLength="12.2" clip-path="url(#terminal-1433787929-line-17)">│</text><text class="terminal-1433787929-r1" x="1366.4" y="434.8" textLength="12.2" clip-path="url(#terminal-1433787929-line-17)">
</text><text class="terminal-1433787929-r2" x="292.8" y="459.2" textLength="12.2" clip-path="url(#terminal-1433787929-line-18)">│</text><text class="terminal-1433787929-r9" x="366" y="459.2" textLength="195.2" clip-path="url(#terminal-1433787929-line-18)">▔▔▔▔▔▔▔▔▔▔▔▔▔▔▔▔</text><text class="terminal-1433787929-r10" x="573.4" y="459.2" textLength="268.4" clip-path="url(#terminal-1433787929-line-18)">▔▔▔▔▔▔▔▔▔▔▔▔▔▔▔▔▔▔▔▔▔▔</text><text class="terminal-1433787929-r10" x="854" y="459.2" textLength="158.6" clip-path="url(#terminal-1433787929-line-18)">▔▔▔▔▔▔▔▔▔▔▔▔▔</text><text class="terminal-1433787929-r2" x="1061.4" y="459.2" textLength="12.2" clip-path="url(#terminal-1433787929-line-18)">│</text><text class="terminal-1433787929-r1" x="1366.4" y="459.2" textLength="12.2" clip-path="url(#terminal-1433787929-line-18)">
</text><text class="terminal-1433787929-r2" x="292.8" y="483.6" textLength="12.2" clip-path="url(#terminal-1433787929-line-19)">│</text><text class="terminal-1433787929-r11" x="366" y="483.6" textLength="183" clip-path="url(#terminal-1433787929-line-19)">&#160;Workspace&#160;URL&#160;</text><text class="terminal-1433787929-r3" x="573.4" y="483.6" textLength="268.4" clip-path="url(#terminal-1433787929-line-19)">&#160;Discover&#160;via&#160;account&#160;</text><text class="terminal-1433787929-r3" x="915" y="483.6" textLength="73.2" clip-path="url(#terminal-1433787929-line-19)">&#160;Quit&#160;</text><text class="terminal-1433787929-r2" x="1061.4" y="483.6" textLength="12.2" clip-path="url(#terminal-1433787929-line-19)">│</text><text class="terminal-1433787929-r1" x="1366.4" y="483.6" textLength="12.2" clip-path="url(#terminal-1433787929-line-19)">
</text><text class="terminal-1433787929-r2" x="292.8" y="508" textLength="12.2" clip-path="url(#terminal-1433787929-line-20)">│</text><text class="terminal-1433787929-r12" x="366" y="508" textLength="195.2" clip-path="url(#terminal-1433787929-line-20)">▁▁▁▁▁▁▁▁▁▁▁▁▁▁▁▁</text><text class="terminal-1433787929-r13" x="573.4" y="508" textLength="268.4" clip-path="url(#terminal-1433787929-line-20)">▁▁▁▁▁▁▁▁▁▁▁▁▁▁▁▁▁▁▁▁▁▁</text><text class="terminal-1433787929-r13" x="854" y="508" textLength="158.6" clip-path="url(#terminal-1433787929-line-20)">▁▁▁▁▁▁▁▁▁▁▁▁▁</text><text class="terminal-1433787929-r2" x="1061.4" y="508" textLength="12.2" clip-path="url(#terminal-1433787929-line-20)">│</text><text class="terminal-1433787929-r1" x="1366.4" y="508" textLength="12.2" clip-path="url(#terminal-1433787929-line-20)">
</text><text class="terminal-1433787929-r2" x="292.8" y="532.4" textLength="12.2" clip-path="url(#terminal-1433787929-line-21)">│</text><text class="terminal-1433787929-r2" x="1061.4" y="532.4" textLength="12.2" clip-path="url(#terminal-1433787929-line-21)">│</text><text class="terminal-1433787929-r1" x="1366.4" y="532.4" textLength="12.2" clip-path="url(#terminal-1433787929-line-21)">
</text><text class="terminal-1433787929-r2" x="292.8" y="556.8" textLength="12.2" clip-path="url(#terminal-1433787929-line-22)">│</text><text class="terminal-1433787929-r2" x="1061.4" y="556.8" textLength="12.2" clip-path="url(#terminal-1433787929-line-22)">│</text><text class="terminal-1433787929-r1" x="1366.4" y="556.8" textLength="12.2" clip-path="url(#terminal-1433787929-line-22)">
</text><text class="terminal-1433787929-r2" x="292.8" y="581.2" textLength="12.2" clip-path="url(#terminal-1433787929-line-23)">│</text><text class="terminal-1433787929-r2" x="1061.4" y="581.2" textLength="12.2" clip-path="url(#terminal-1433787929-line-23)">│</text><text class="terminal-1433787929-r1" x="1366.4" y="581.2" textLength="12.2" clip-path="url(#terminal-1433787929-line-23)">
</text><text class="terminal-1433787929-r2" x="292.8" y="605.6" textLength="12.2" clip-path="url(#terminal-1433787929-line-24)">│</text><text class="terminal-1433787929-r2" x="1061.4" y="605.6" textLength="12.2" clip-path="url(#terminal-1433787929-line-24)">│</text><text class="terminal-1433787929-r1" x="1366.4" y="605.6" textLength="12.2" clip-path="url(#terminal-1433787929-line-24)">
</text><text class="terminal-1433787929-r2" x="292.8" y="630" textLength="12.2" clip-path="url(#terminal-1433787929-line-25)">╰</text><text class="terminal-1433787929-r2" x="305" y="630" textLength="756.4" clip-path="url(#terminal-1433787929-line-25)">──────────────────────────────────────────────────────────────</text><text class="terminal-1433787929-r2" x="1061.4" y="630" textLength="12.2" clip-path="url(#terminal-1433787929-line-25)">╯</text><text class="terminal-1433787929-r1" x="1366.4" y="630" textLength="12.2" clip-path="url(#terminal-1433787929-line-25)">
</text><text class="terminal-1433787929-r1" x="1366.4" y="654.4" textLength="12.2" clip-path="url(#terminal-1433787929-line-26)">
</text><text class="terminal-1433787929-r1" x="1366.4" y="678.8" textLength="12.2" clip-path="url(#terminal-1433787929-line-27)">
</text><text class="terminal-1433787929-r1" x="1366.4" y="703.2" textLength="12.2" clip-path="url(#terminal-1433787929-line-28)">
</text><text class="terminal-1433787929-r1" x="1366.4" y="727.6" textLength="12.2" clip-path="url(#terminal-1433787929-line-29)">
</text><text class="terminal-1433787929-r1" x="1366.4" y="752" textLength="12.2" clip-path="url(#terminal-1433787929-line-30)">
</text><text class="terminal-1433787929-r1" x="1366.4" y="776.4" textLength="12.2" clip-path="url(#terminal-1433787929-line-31)">
</text><text class="terminal-1433787929-r1" x="1366.4" y="800.8" textLength="12.2" clip-path="url(#terminal-1433787929-line-32)">
</text>
    </g>
    </g>
</svg>
