<svg class="rich-terminal" viewBox="0 0 1385 879.5999999999999" xmlns="http://www.w3.org/2000/svg">
    <!-- Generated with Rich https://www.textualize.io -->
    <style>

    @font-face {
        font-family: "Fira Code";
        src: local("FiraCode-Regular"),
                url("https://cdnjs.cloudflare.com/ajax/libs/firacode/6.2.0/woff2/FiraCode-Regular.woff2") format("woff2"),
                url("https://cdnjs.cloudflare.com/ajax/libs/firacode/6.2.0/woff/FiraCode-Regular.woff") format("woff");
        font-style: normal;
        font-weight: 400;
    }
    @font-face {
        font-family: "Fira Code";
        src: local("FiraCode-Bold"),
                url("https://cdnjs.cloudflare.com/ajax/libs/firacode/6.2.0/woff2/FiraCode-Bold.woff2") format("woff2"),
                url("https://cdnjs.cloudflare.com/ajax/libs/firacode/6.2.0/woff/FiraCode-Bold.woff") format("woff");
        font-style: bold;
        font-weight: 700;
    }

    .terminal-1505048152-matrix {
        font-family: ui-monospace, SFMono-Regular, Menlo, monospace;
        font-size: 20px;
        line-height: 24.4px;
        font-variant-east-asian: full-width;
    }

    .terminal-1505048152-title {
        font-size: 18px;
        font-weight: bold;
        font-family: ui-sans-serif, -apple-system, Helvetica Neue, sans-serif;
    }

    .terminal-1505048152-r1 { fill: #c5c8c6 }
.terminal-1505048152-r2 { fill: #26262f }
.terminal-1505048152-r3 { fill: #e9e9ef;font-weight: bold }
.terminal-1505048152-r4 { fill: #8a8a97 }
.terminal-1505048152-r5 { fill: #e9e9ef }
.terminal-1505048152-r6 { fill: #8b7cff }
.terminal-1505048152-r7 { fill: #0d0d11;font-weight: bold }
.terminal-1505048152-r8 { fill: #e0b24a;font-weight: bold }
    </style>

    <defs>
    <clipPath id="terminal-1505048152-clip-terminal">
      <rect x="0" y="0" width="1365.3999999999999" height="828.5999999999999" />
    </clipPath>
    <clipPath id="terminal-1505048152-line-0">
    <rect x="0" y="1.5" width="1366.4" height="24.65"/>
            </clipPath>
<clipPath id="terminal-1505048152-line-1">
    <rect x="0" y="25.9" width="1366.4" height="24.65"/>
            </clipPath>
<clipPath id="terminal-1505048152-line-2">
    <rect x="0" y="50.3" width="1366.4" height="24.65"/>
            </clipPath>
<clipPath id="terminal-1505048152-line-3">
    <rect x="0" y="74.7" width="1366.4" height="24.65"/>
            </clipPath>
<clipPath id="terminal-1505048152-line-4">
    <rect x="0" y="99.1" width="1366.4" height="24.65"/>
            </clipPath>
<clipPath id="terminal-1505048152-line-5">
    <rect x="0" y="123.5" width="1366.4" height="24.65"/>
            </clipPath>
<clipPath id="terminal-1505048152-line-6">
    <rect x="0" y="147.9" width="1366.4" height="24.65"/>
            </clipPath>
<clipPath id="terminal-1505048152-line-7">
    <rect x="0" y="172.3" width="1366.4" height="24.65"/>
            </clipPath>
<clipPath id="terminal-1505048152-line-8">
    <rect x="0" y="196.7" width="1366.4" height="24.65"/>
            </clipPath>
<clipPath id="terminal-1505048152-line-9">
    <rect x="0" y="221.1" width="1366.4" height="24.65"/>
            </clipPath>
<clipPath id="terminal-1505048152-line-10">
    <rect x="0" y="245.5" width="1366.4" height="24.65"/>
            </clipPath>
<clipPath id="terminal-1505048152-line-11">
    <rect x="0" y="269.9" width="1366.4" height="24.65"/>
            </clipPath>
<clipPath id="terminal-1505048152-line-12">
    <rect x="0" y="294.3" width="1366.4" height="24.65"/>
            </clipPath>
<clipPath id="terminal-1505048152-line-13">
    <rect x="0" y="318.7" width="1366.4" height="24.65"/>
            </clipPath>
<clipPath id="terminal-1505048152-line-14">
    <rect x="0" y="343.1" width="1366.4" height="24.65"/>
            </clipPath>
<clipPath id="terminal-1505048152-line-15">
    <rect x="0" y="367.5" width="1366.4" height="24.65"/>
            </clipPath>
<clipPath id="terminal-1505048152-line-16">
    <rect x="0" y="391.9" width="1366.4" height="24.65"/>
            </clipPath>
<clipPath id="terminal-1505048152-line-17">
    <rect x="0" y="416.3" width="1366.4" height="24.65"/>
            </clipPath>
<clipPath id="terminal-1505048152-line-18">
    <rect x="0" y="440.7" width="1366.4" height="24.65"/>
            </clipPath>
<clipPath id="terminal-1505048152-line-19">
    <rect x="0" y="465.1" width="1366.4" height="24.65"/>
            </clipPath>
<clipPath id="terminal-1505048152-line-20">
    <rect x="0" y="489.5" width="1366.4" height="24.65"/>
            </clipPath>
<clipPath id="terminal-1505048152-line-21">
    <rect x="0" y="513.9" width="1366.4" height="24.65"/>
            </clipPath>
<clipPath id="terminal-1505048152-line-22">
    <rect x="0" y="538.3" width="1366.4" height="24.65"/>
            </clipPath>
<clipPath id="terminal-1505048152-line-23">
    <rect x="0" y="562.7" width="1366.4" height="24.65"/>
            </clipPath>
<clipPath id="terminal-1505048152-line-24">
    <rect x="0" y="587.1" width="1366.4" height="24.65"/>
            </clipPath>
<clipPath id="terminal-1505048152-line-25">
    <rect x="0" y="611.5" width="1366.4" height="24.65"/>
            </clipPath>
<clipPath id="terminal-1505048152-line-26">
    <rect x="0" y="635.9" width="1366.4" height="24.65"/>
            </clipPath>
<clipPath id="terminal-1505048152-line-27">
    <rect x="0" y="660.3" width="1366.4" height="24.65"/>
            </clipPath>
<clipPath id="terminal-1505048152-line-28">
    <rect x="0" y="684.7" width="1366.4" height="24.65"/>
            </clipPath>
<clipPath id="terminal-1505048152-line-29">
    <rect x="0" y="709.1" width="1366.4" height="24.65"/>
            </clipPath>
<clipPath id="terminal-1505048152-line-30">
    <rect x="0" y="733.5" width="1366.4" height="24.65"/>
            </clipPath>
<clipPath id="terminal-1505048152-line-31">
    <rect x="0" y="757.9" width="1366.4" height="24.65"/>
            </clipPath>
<clipPath id="terminal-1505048152-line-32">
    <rect x="0" y="782.3" width="1366.4" height="24.65"/>
            </clipPath>
    </defs>

    <rect fill="#292929" stroke="rgba(255,255,255,0.35)" stroke-width="1" x="1" y="1" width="1383" height="877.6" rx="8"/><text class="terminal-1505048152-title" fill="#c5c8c6" text-anchor="middle" x="691" y="27">Isolinear</text>
            <g transform="translate(26,22)">
            <circle cx="0" cy="0" r="7" fill="#ff5f57"/>
            <circle cx="22" cy="0" r="7" fill="#febc2e"/>
            <circle cx="44" cy="0" r="7" fill="#28c840"/>
            </g>
        
    <g transform="translate(9, 41)" clip-path="url(#terminal-1505048152-clip-terminal)">
    <rect fill="#0d0d11" x="0" y="1.5" width="1366.4" height="24.65" shape-rendering="crispEdges"/><rect fill="#0d0d11" x="0" y="25.9" width="24.4" height="24.65" shape-rendering="crispEdges"/><rect fill="#0d0d11" x="24.4" y="25.9" width="1317.6" height="24.65" shape-rendering="crispEdges"/><rect fill="#0d0d11" x="1342" y="25.9" width="24.4" height="24.65" shape-rendering="crispEdges"/><rect fill="#0d0d11" x="0" y="50.3" width="24.4" height="24.65" shape-rendering="crispEdges"/><rect fill="#0d0d11" x="24.4" y="50.3" width="1317.6" height="24.65" shape-rendering="crispEdges"/><rect fill="#0d0d11" x="1342" y="50.3" width="24.4" height="24.65" shape-rendering="crispEdges"/><rect fill="#0d0d11" x="0" y="74.7" width="24.4" height="24.65" shape-rendering="crispEdges"/><rect fill="#0d0d11" x="24.4" y="74.7" width="1317.6" height="24.65" shape-rendering="crispEdges"/><rect fill="#0d0d11" x="1342" y="74.7" width="24.4" height="24.65" shape-rendering="crispEdges"/><rect fill="#0d0d11" x="0" y="99.1" width="24.4" height="24.65" shape-rendering="crispEdges"/><rect fill="#0d0d11" x="24.4" y="99.1" width="1317.6" height="24.65" shape-rendering="crispEdges"/><rect fill="#0d0d11" x="1342" y="99.1" width="24.4" height="24.65" shape-rendering="crispEdges"/><rect fill="#0d0d11" x="0" y="123.5" width="24.4" height="24.65" shape-rendering="crispEdges"/><rect fill="#0d0d11" x="24.4" y="123.5" width="1317.6" height="24.65" shape-rendering="crispEdges"/><rect fill="#0d0d11" x="1342" y="123.5" width="24.4" height="24.65" shape-rendering="crispEdges"/><rect fill="#0d0d11" x="0" y="147.9" width="24.4" height="24.65" shape-rendering="crispEdges"/><rect fill="#0d0d11" x="24.4" y="147.9" width="1317.6" height="24.65" shape-rendering="crispEdges"/><rect fill="#0d0d11" x="1342" y="147.9" width="24.4" height="24.65" shape-rendering="crispEdges"/><rect fill="#0d0d11" x="0" y="172.3" width="24.4" height="24.65" shape-rendering="crispEdges"/><rect fill="#0d0d11" x="24.4" y="172.3" width="1317.6" height="24.65" shape-rendering="crispEdges"/><rect fill="#0d0d11" x="1342" y="172.3" width="24.4" height="24.65" shape-rendering="crispEdges"/><rect fill="#0d0d11" x="0" y="196.7" width="24.4" height="24.65" shape-rendering="crispEdges"/><rect fill="#0d0d11" x="24.4" y="196.7" width="1317.6" height="24.65" shape-rendering="crispEdges"/><rect fill="#0d0d11" x="1342" y="196.7" width="24.4" height="24.65" shape-rendering="crispEdges"/><rect fill="#0d0d11" x="0" y="221.1" width="24.4" height="24.65" shape-rendering="crispEdges"/><rect fill="#0d0d11" x="24.4" y="221.1" width="1317.6" height="24.65" shape-rendering="crispEdges"/><rect fill="#0d0d11" x="1342" y="221.1" width="24.4" height="24.65" shape-rendering="crispEdges"/><rect fill="#0d0d11" x="0" y="245.5" width="24.4" height="24.65" shape-rendering="crispEdges"/><rect fill="#0d0d11" x="24.4" y="245.5" width="1317.6" height="24.65" shape-rendering="crispEdges"/><rect fill="#0d0d11" x="1342" y="245.5" width="24.4" height="24.65" shape-rendering="crispEdges"/><rect fill="#0d0d11" x="0" y="269.9" width="24.4" height="24.65" shape-rendering="crispEdges"/><rect fill="#0d0d11" x="24.4" y="269.9" width="268.4" height="24.65" shape-rendering="crispEdges"/><rect fill="#15151b" x="292.8" y="269.9" width="12.2" height="24.65" shape-rendering="crispEdges"/><rect fill="#15151b" x="305" y="269.9" width="756.4" height="24.65" shape-rendering="crispEdges"/><rect fill="#15151b" x="1061.4" y="269.9" width="12.2" height="24.65" shape-rendering="crispEdges"/><rect fill="#0d0d11" x="1073.6" y="269.9" width="268.4" height="24.65" shape-rendering="crispEdges"/><rect fill="#0d0d11" x="1342" y="269.9" width="24.4" height="24.65" shape-rendering="crispEdges"/><rect fill="#0d0d11" x="0" y="294.3" width="24.4" height="24.65" shape-rendering="crispEdges"/><rect fill="#0d0d11" x="24.4" y="294.3" width="268.4" height="24.65" shape-rendering="crispEdges"/><rect fill="#15151b" x="292.8" y="294.3" width="12.2" height="24.65" shape-rendering="crispEdges"/><rect fill="#15151b" x="305" y="294.3" width="756.4" height="24.65" shape-rendering="crispEdges"/><rect fill="#15151b" x="1061.4" y="294.3" width="12.2" height="24.65" shape-rendering="crispEdges"/><rect fill="#0d0d11" x="1073.6" y="294.3" width="268.4" height="24.65" shape-rendering="crispEdges"/><rect fill="#0d0d11" x="1342" y="294.3" width="24.4" height="24.65" shape-rendering="crispEdges"/><rect fill="#0d0d11" x="0" y="318.7" width="24.4" height="24.65" shape-rendering="crispEdges"/><rect fill="#0d0d11" x="24.4" y="318.7" width="268.4" height="24.65" shape-rendering="crispEdges"/><rect fill="#15151b" x="292.8" y="318.7" width="12.2" height="24.65" shape-rendering="crispEdges"/><rect fill="#15151b" x="305" y="318.7" width="36.6" height="24.65" shape-rendering="crispEdges"/><rect fill="#15151b" x="341.6" y="318.7" width="268.4" height="24.65" shape-rendering="crispEdges"/><rect fill="#15151b" x="610" y="318.7" width="414.8" height="24.65" shape-rendering="crispEdges"/><rect fill="#15151b" x="1024.8" y="318.7" width="36.6" height="24.65" shape-rendering="crispEdges"/><rect fill="#15151b" x="1061.4" y="318.7" width="12.2" height="24.65" shape-rendering="crispEdges"/><rect fill="#0d0d11" x="1073.6" y="318.7" width="268.4" height="24.65" shape-rendering="crispEdges"/><rect fill="#0d0d11" x="1342" y="318.7" width="24.4" height="24.65" shape-rendering="crispEdges"/><rect fill="#0d0d11" x="0" y="343.1" width="24.4" height="24.65" shape-rendering="crispEdges"/><rect fill="#0d0d11" x="24.4" y="343.1" width="268.4" height="24.65" shape-rendering="crispEdges"/><rect fill="#15151b" x="292.8" y="343.1" width="12.2" height="24.65" shape-rendering="crispEdges"/><rect fill="#15151b" x="305" y="343.1" width="36.6" height="24.65" shape-rendering="crispEdges"/><rect fill="#15151b" x="341.6" y="343.1" width="683.2" height="24.65" shape-rendering="crispEdges"/><rect fill="#15151b" x="1024.8" y="343.1" width="36.6" height="24.65" shape-rendering="crispEdges"/><rect fill="#15151b" x="1061.4" y="343.1" width="12.2" height="24.65" shape-rendering="crispEdges"/><rect fill="#0d0d11" x="1073.6" y="343.1" width="268.4" height="24.65" shape-rendering="crispEdges"/><rect fill="#0d0d11" x="1342" y="343.1" width="24.4" height="24.65" shape-rendering="crispEdges"/><rect fill="#0d0d11" x="0" y="367.5" width="24.4" height="24.65" shape-rendering="crispEdges"/><rect fill="#0d0d11" x="24.4" y="367.5" width="268.4" height="24.65" shape-rendering="crispEdges"/><rect fill="#15151b" x="292.8" y="367.5" width="12.2" height="24.65" shape-rendering="crispEdges"/><rect fill="#15151b" x="305" y="367.5" width="36.6" height="24.65" shape-rendering="crispEdges"/><rect fill="#15151b" x="341.6" y="367.5" width="97.6" height="24.65" shape-rendering="crispEdges"/><rect fill="#15151b" x="439.2" y="367.5" width="24.4" height="24.65" shape-rendering="crispEdges"/><rect fill="#15151b" x="463.6" y="367.5" width="134.2" height="24.65" shape-rendering="crispEdges"/><rect fill="#15151b" x="597.8" y="367.5" width="36.6" height="24.65" shape-rendering="crispEdges"/><rect fill="#15151b" x="634.4" y="367.5" width="183" height="24.65" shape-rendering="crispEdges"/><rect fill="#15151b" x="817.4" y="367.5" width="207.4" height="24.65" shape-rendering="crispEdges"/><rect fill="#15151b" x="1024.8" y="367.5" width="36.6" height="24.65" shape-rendering="crispEdges"/><rect fill="#15151b" x="1061.4" y="367.5" width="12.2" height="24.65" shape-rendering="crispEdges"/><rect fill="#0d0d11" x="1073.6" y="367.5" width="268.4" height="24.65" shape-rendering="crispEdges"/><rect fill="#0d0d11" x="1342" y="367.5" width="24.4" height="24.65" shape-rendering="crispEdges"/><rect fill="#0d0d11" x="0" y="391.9" width="24.4" height="24.65" shape-rendering="crispEdges"/><rect fill="#0d0d11" x="24.4" y="391.9" width="268.4" height="24.65" shape-rendering="crispEdges"/><rect fill="#15151b" x="292.8" y="391.9" width="12.2" height="24.65" shape-rendering="crispEdges"/><rect fill="#15151b" x="305" y="391.9" width="36.6" height="24.65" shape-rendering="crispEdges"/><rect fill="#15151b" x="341.6" y="391.9" width="683.2" height="24.65" shape-rendering="crispEdges"/><rect fill="#15151b" x="1024.8" y="391.9" width="36.6" height="24.65" shape-rendering="crispEdges"/><rect fill="#15151b" x="1061.4" y="391.9" width="12.2" height="24.65" shape-rendering="crispEdges"/><rect fill="#0d0d11" x="1073.6" y="391.9" width="268.4" height="24.65" shape-rendering="crispEdges"/><rect fill="#0d0d11" x="1342" y="391.9" width="24.4" height="24.65" shape-rendering="crispEdges"/><rect fill="#0d0d11" x="0" y="416.3" width="24.4" height="24.65" shape-rendering="crispEdges"/><rect fill="#0d0d11" x="24.4" y="416.3" width="268.4" height="24.65" shape-rendering="crispEdges"/><rect fill="#15151b" x="292.8" y="416.3" width="12.2" height="24.65" shape-rendering="crispEdges"/><rect fill="#15151b" x="305" y="416.3" width="36.6" height="24.65" shape-rendering="crispEdges"/><rect fill="#15151b" x="341.6" y="416.3" width="85.4" height="24.65" shape-rendering="crispEdges"/><rect fill="#15151b" x="427" y="416.3" width="134.2" height="24.65" shape-rendering="crispEdges"/><rect fill="#15151b" x="561.2" y="416.3" width="73.2" height="24.65" shape-rendering="crispEdges"/><rect fill="#15151b" x="634.4" y="416.3" width="85.4" height="24.65" shape-rendering="crispEdges"/><rect fill="#15151b" x="719.8" y="416.3" width="97.6" height="24.65" shape-rendering="crispEdges"/><rect fill="#15151b" x="817.4" y="416.3" width="207.4" height="24.65" shape-rendering="crispEdges"/><rect fill="#15151b" x="1024.8" y="416.3" width="36.6" height="24.65" shape-rendering="crispEdges"/><rect fill="#15151b" x="1061.4" y="416.3" width="12.2" height="24.65" shape-rendering="crispEdges"/><rect fill="#0d0d11" x="1073.6" y="416.3" width="268.4" height="24.65" shape-rendering="crispEdges"/><rect fill="#0d0d11" x="1342" y="416.3" width="24.4" height="24.65" shape-rendering="crispEdges"/><rect fill="#0d0d11" x="0" y="440.7" width="24.4" height="24.65" shape-rendering="crispEdges"/><rect fill="#0d0d11" x="24.4" y="440.7" width="268.4" height="24.65" shape-rendering="crispEdges"/><rect fill="#15151b" x="292.8" y="440.7" width="12.2" height="24.65" shape-rendering="crispEdges"/><rect fill="#15151b" x="305" y="440.7" width="36.6" height="24.65" shape-rendering="crispEdges"/><rect fill="#38335f" x="341.6" y="440.7" width="85.4" height="24.65" shape-rendering="crispEdges"/><rect fill="#38335f" x="427" y="440.7" width="134.2" height="24.65" shape-rendering="crispEdges"/><rect fill="#38335f" x="561.2" y="440.7" width="73.2" height="24.65" shape-rendering="crispEdges"/><rect fill="#38335f" x="634.4" y="440.7" width="85.4" height="24.65" shape-rendering="crispEdges"/><rect fill="#38335f" x="719.8" y="440.7" width="97.6" height="24.65" shape-rendering="crispEdges"/><rect fill="#38335f" x="817.4" y="440.7" width="207.4" height="24.65" shape-rendering="crispEdges"/><rect fill="#15151b" x="1024.8" y="440.7" width="36.6" height="24.65" shape-rendering="crispEdges"/><rect fill="#15151b" x="1061.4" y="440.7" width="12.2" height="24.65" shape-rendering="crispEdges"/><rect fill="#0d0d11" x="1073.6" y="440.7" width="268.4" height="24.65" shape-rendering="crispEdges"/><rect fill="#0d0d11" x="1342" y="440.7" width="24.4" height="24.65" shape-rendering="crispEdges"/><rect fill="#0d0d11" x="0" y="465.1" width="24.4" height="24.65" shape-rendering="crispEdges"/><rect fill="#0d0d11" x="24.4" y="465.1" width="268.4" height="24.65" shape-rendering="crispEdges"/><rect fill="#15151b" x="292.8" y="465.1" width="12.2" height="24.65" shape-rendering="crispEdges"/><rect fill="#15151b" x="305" y="465.1" width="36.6" height="24.65" shape-rendering="crispEdges"/><rect fill="#15151b" x="341.6" y="465.1" width="85.4" height="24.65" shape-rendering="crispEdges"/><rect fill="#15151b" x="427" y="465.1" width="12.2" height="24.65" shape-rendering="crispEdges"/><rect fill="#15151b" x="439.2" y="465.1" width="73.2" height="24.65" shape-rendering="crispEdges"/><rect fill="#15151b" x="512.4" y="465.1" width="48.8" height="24.65" shape-rendering="crispEdges"/><rect fill="#15151b" x="561.2" y="465.1" width="73.2" height="24.65" shape-rendering="crispEdges"/><rect fill="#15151b" x="634.4" y="465.1" width="85.4" height="24.65" shape-rendering="crispEdges"/><rect fill="#15151b" x="719.8" y="465.1" width="97.6" height="24.65" shape-rendering="crispEdges"/><rect fill="#15151b" x="817.4" y="465.1" width="207.4" height="24.65" shape-rendering="crispEdges"/><rect fill="#15151b" x="1024.8" y="465.1" width="36.6" height="24.65" shape-rendering="crispEdges"/><rect fill="#15151b" x="1061.4" y="465.1" width="12.2" height="24.65" shape-rendering="crispEdges"/><rect fill="#0d0d11" x="1073.6" y="465.1" width="268.4" height="24.65" shape-rendering="crispEdges"/><rect fill="#0d0d11" x="1342" y="465.1" width="24.4" height="24.65" shape-rendering="crispEdges"/><rect fill="#0d0d11" x="0" y="489.5" width="24.4" height="24.65" shape-rendering="crispEdges"/><rect fill="#0d0d11" x="24.4" y="489.5" width="268.4" height="24.65" shape-rendering="crispEdges"/><rect fill="#15151b" x="292.8" y="489.5" width="12.2" height="24.65" shape-rendering="crispEdges"/><rect fill="#15151b" x="305" y="489.5" width="756.4" height="24.65" shape-rendering="crispEdges"/><rect fill="#15151b" x="1061.4" y="489.5" width="12.2" height="24.65" shape-rendering="crispEdges"/><rect fill="#0d0d11" x="1073.6" y="489.5" width="268.4" height="24.65" shape-rendering="crispEdges"/><rect fill="#0d0d11" x="1342" y="489.5" width="24.4" height="24.65" shape-rendering="crispEdges"/><rect fill="#0d0d11" x="0" y="513.9" width="24.4" height="24.65" shape-rendering="crispEdges"/><rect fill="#0d0d11" x="24.4" y="513.9" width="268.4" height="24.65" shape-rendering="crispEdges"/><rect fill="#15151b" x="292.8" y="513.9" width="12.2" height="24.65" shape-rendering="crispEdges"/><rect fill="#15151b" x="305" y="513.9" width="756.4" height="24.65" shape-rendering="crispEdges"/><rect fill="#15151b" x="1061.4" y="513.9" width="12.2" height="24.65" shape-rendering="crispEdges"/><rect fill="#0d0d11" x="1073.6" y="513.9" width="268.4" height="24.65" shape-rendering="crispEdges"/><rect fill="#0d0d11" x="1342" y="513.9" width="24.4" height="24.65" shape-rendering="crispEdges"/><rect fill="#0d0d11" x="0" y="538.3" width="24.4" height="24.65" shape-rendering="crispEdges"/><rect fill="#0d0d11" x="24.4" y="538.3" width="1317.6" height="24.65" shape-rendering="crispEdges"/><rect fill="#0d0d11" x="1342" y="538.3" width="24.4" height="24.65" shape-rendering="crispEdges"/><rect fill="#0d0d11" x="0" y="562.7" width="24.4" height="24.65" shape-rendering="crispEdges"/><rect fill="#0d0d11" x="24.4" y="562.7" width="1317.6" height="24.65" shape-rendering="crispEdges"/><rect fill="#0d0d11" x="1342" y="562.7" width="24.4" height="24.65" shape-rendering="crispEdges"/><rect fill="#0d0d11" x="0" y="587.1" width="24.4" height="24.65" shape-rendering="crispEdges"/><rect fill="#0d0d11" x="24.4" y="587.1" width="1317.6" height="24.65" shape-rendering="crispEdges"/><rect fill="#0d0d11" x="1342" y="587.1" width="24.4" height="24.65" shape-rendering="crispEdges"/><rect fill="#0d0d11" x="0" y="611.5" width="24.4" height="24.65" shape-rendering="crispEdges"/><rect fill="#0d0d11" x="24.4" y="611.5" width="1317.6" height="24.65" shape-rendering="crispEdges"/><rect fill="#0d0d11" x="1342" y="611.5" width="24.4" height="24.65" shape-rendering="crispEdges"/><rect fill="#0d0d11" x="0" y="635.9" width="24.4" height="24.65" shape-rendering="crispEdges"/><rect fill="#0d0d11" x="24.4" y="635.9" width="1317.6" height="24.65" shape-rendering="crispEdges"/><rect fill="#0d0d11" x="1342" y="635.9" width="24.4" height="24.65" shape-rendering="crispEdges"/><rect fill="#0d0d11" x="0" y="660.3" width="24.4" height="24.65" shape-rendering="crispEdges"/><rect fill="#0d0d11" x="24.4" y="660.3" width="1317.6" height="24.65" shape-rendering="crispEdges"/><rect fill="#0d0d11" x="1342" y="660.3" width="24.4" height="24.65" shape-rendering="crispEdges"/><rect fill="#0d0d11" x="0" y="684.7" width="24.4" height="24.65" shape-rendering="crispEdges"/><rect fill="#0d0d11" x="24.4" y="684.7" width="1317.6" height="24.65" shape-rendering="crispEdges"/><rect fill="#0d0d11" x="1342" y="684.7" width="24.4" height="24.65" shape-rendering="crispEdges"/><rect fill="#0d0d11" x="0" y="709.1" width="24.4" height="24.65" shape-rendering="crispEdges"/><rect fill="#0d0d11" x="24.4" y="709.1" width="1317.6" height="24.65" shape-rendering="crispEdges"/><rect fill="#0d0d11" x="1342" y="709.1" width="24.4" height="24.65" shape-rendering="crispEdges"/><rect fill="#0d0d11" x="0" y="733.5" width="24.4" height="24.65" shape-rendering="crispEdges"/><rect fill="#0d0d11" x="24.4" y="733.5" width="1317.6" height="24.65" shape-rendering="crispEdges"/><rect fill="#0d0d11" x="1342" y="733.5" width="24.4" height="24.65" shape-rendering="crispEdges"/><rect fill="#0d0d11" x="0" y="757.9" width="24.4" height="24.65" shape-rendering="crispEdges"/><rect fill="#0d0d11" x="24.4" y="757.9" width="1317.6" height="24.65" shape-rendering="crispEdges"/><rect fill="#0d0d11" x="1342" y="757.9" width="24.4" height="24.65" shape-rendering="crispEdges"/><rect fill="#0d0d11" x="0" y="782.3" width="24.4" height="24.65" shape-rendering="crispEdges"/><rect fill="#0d0d11" x="24.4" y="782.3" width="1317.6" height="24.65" shape-rendering="crispEdges"/><rect fill="#0d0d11" x="1342" y="782.3" width="24.4" height="24.65" shape-rendering="crispEdges"/><rect fill="#0d0d11" x="0" y="806.7" width="1366.4" height="24.65" shape-rendering="crispEdges"/>
    <g class="terminal-1505048152-matrix">
    <text class="terminal-1505048152-r1" x="1366.4" y="20" textLength="12.2" clip-path="url(#terminal-1505048152-line-0)">
</text><text class="terminal-1505048152-r1" x="1366.4" y="44.4" textLength="12.2" clip-path="url(#terminal-1505048152-line-1)">
</text><text class="terminal-1505048152-r1" x="1366.4" y="68.8" textLength="12.2" clip-path="url(#terminal-1505048152-line-2)">
</text><text class="terminal-1505048152-r1" x="1366.4" y="93.2" textLength="12.2" clip-path="url(#terminal-1505048152-line-3)">
</text><text class="terminal-1505048152-r1" x="1366.4" y="117.6" textLength="12.2" clip-path="url(#terminal-1505048152-line-4)">
</text><text class="terminal-1505048152-r1" x="1366.4" y="142" textLength="12.2" clip-path="url(#terminal-1505048152-line-5)">
</text><text class="terminal-1505048152-r1" x="1366.4" y="166.4" textLength="12.2" clip-path="url(#terminal-1505048152-line-6)">
</text><text class="terminal-1505048152-r1" x="1366.4" y="190.8" textLength="12.2" clip-path="url(#terminal-1505048152-line-7)">
</text><text class="terminal-1505048152-r1" x="1366.4" y="215.2" textLength="12.2" clip-path="url(#terminal-1505048152-line-8)">
</text><text class="terminal-1505048152-r1" x="1366.4" y="239.6" textLength="12.2" clip-path="url(#terminal-1505048152-line-9)">
</text><text class="terminal-1505048152-r1" x="1366.4" y="264" textLength="12.2" clip-path="url(#terminal-1505048152-line-10)">
</text><text class="terminal-1505048152-r2" x="292.8" y="288.4" textLength="12.2" clip-path="url(#terminal-1505048152-line-11)">╭</text><text class="terminal-1505048152-r2" x="305" y="288.4" textLength="756.4" clip-path="url(#terminal-1505048152-line-11)">──────────────────────────────────────────────────────────────</text><text class="terminal-1505048152-r2" x="1061.4" y="288.4" textLength="12.2" clip-path="url(#terminal-1505048152-line-11)">╮</text><text class="terminal-1505048152-r1" x="1366.4" y="288.4" textLength="12.2" clip-path="url(#terminal-1505048152-line-11)">
</text><text class="terminal-1505048152-r2" x="292.8" y="312.8" textLength="12.2" clip-path="url(#terminal-1505048152-line-12)">│</text><text class="terminal-1505048152-r2" x="1061.4" y="312.8" textLength="12.2" clip-path="url(#terminal-1505048152-line-12)">│</text><text class="terminal-1505048152-r1" x="1366.4" y="312.8" textLength="12.2" clip-path="url(#terminal-1505048152-line-12)">
</text><text class="terminal-1505048152-r2" x="292.8" y="337.2" textLength="12.2" clip-path="url(#terminal-1505048152-line-13)">│</text><text class="terminal-1505048152-r3" x="341.6" y="337.2" textLength="268.4" clip-path="url(#terminal-1505048152-line-13)">Authorization&#160;overview</text><text class="terminal-1505048152-r2" x="1061.4" y="337.2" textLength="12.2" clip-path="url(#terminal-1505048152-line-13)">│</text><text class="terminal-1505048152-r1" x="1366.4" y="337.2" textLength="12.2" clip-path="url(#terminal-1505048152-line-13)">
</text><text class="terminal-1505048152-r2" x="292.8" y="361.6" textLength="12.2" clip-path="url(#terminal-1505048152-line-14)">│</text><text class="terminal-1505048152-r2" x="1061.4" y="361.6" textLength="12.2" clip-path="url(#terminal-1505048152-line-14)">│</text><text class="terminal-1505048152-r1" x="1366.4" y="361.6" textLength="12.2" clip-path="url(#terminal-1505048152-line-14)">
</text><text class="terminal-1505048152-r2" x="292.8" y="386" textLength="12.2" clip-path="url(#terminal-1505048152-line-15)">│</text><text class="terminal-1505048152-r4" x="341.6" y="386" textLength="97.6" clip-path="url(#terminal-1505048152-line-15)">Identity</text><text class="terminal-1505048152-r3" x="463.6" y="386" textLength="134.2" clip-path="url(#terminal-1505048152-line-15)">me@corp.com</text><text class="terminal-1505048152-r6" x="634.4" y="386" textLength="183" clip-path="url(#terminal-1505048152-line-15)">✓&#160;authenticated</text><text class="terminal-1505048152-r2" x="1061.4" y="386" textLength="12.2" clip-path="url(#terminal-1505048152-line-15)">│</text><text class="terminal-1505048152-r1" x="1366.4" y="386" textLength="12.2" clip-path="url(#terminal-1505048152-line-15)">
</text><text class="terminal-1505048152-r2" x="292.8" y="410.4" textLength="12.2" clip-path="url(#terminal-1505048152-line-16)">│</text><text class="terminal-1505048152-r2" x="1061.4" y="410.4" textLength="12.2" clip-path="url(#terminal-1505048152-line-16)">│</text><text class="terminal-1505048152-r1" x="1366.4" y="410.4" textLength="12.2" clip-path="url(#terminal-1505048152-line-16)">
</text><text class="terminal-1505048152-r2" x="292.8" y="434.8" textLength="12.2" clip-path="url(#terminal-1505048152-line-17)">│</text><text class="terminal-1505048152-r4" x="341.6" y="434.8" textLength="85.4" clip-path="url(#terminal-1505048152-line-17)">&#160;Scope&#160;</text><text class="terminal-1505048152-r4" x="427" y="434.8" textLength="134.2" clip-path="url(#terminal-1505048152-line-17)">&#160;My&#160;access&#160;</text><text class="terminal-1505048152-r4" x="561.2" y="434.8" textLength="73.2" clip-path="url(#terminal-1505048152-line-17)">&#160;ACLs&#160;</text><text class="terminal-1505048152-r4" x="634.4" y="434.8" textLength="85.4" clip-path="url(#terminal-1505048152-line-17)">&#160;Write&#160;</text><text class="terminal-1505048152-r4" x="719.8" y="434.8" textLength="97.6" clip-path="url(#terminal-1505048152-line-17)">&#160;Manage&#160;</text><text class="terminal-1505048152-r2" x="1061.4" y="434.8" textLength="12.2" clip-path="url(#terminal-1505048152-line-17)">│</text><text class="terminal-1505048152-r1" x="1366.4" y="434.8" textLength="12.2" clip-path="url(#terminal-1505048152-line-17)">
</text><text class="terminal-1505048152-r2" x="292.8" y="459.2" textLength="12.2" clip-path="url(#terminal-1505048152-line-18)">│</text><text class="terminal-1505048152-r7" x="341.6" y="459.2" textLength="85.4" clip-path="url(#terminal-1505048152-line-18)">&#160;kv&#160;&#160;&#160;&#160;</text><text class="terminal-1505048152-r7" x="427" y="459.2" textLength="134.2" clip-path="url(#terminal-1505048152-line-18)">&#160;READ&#160;&#160;&#160;&#160;&#160;&#160;</text><text class="terminal-1505048152-r7" x="561.2" y="459.2" textLength="73.2" clip-path="url(#terminal-1505048152-line-18)">&#160;1&#160;&#160;&#160;&#160;</text><text class="terminal-1505048152-r7" x="634.4" y="459.2" textLength="85.4" clip-path="url(#terminal-1505048152-line-18)">&#160;·&#160;&#160;&#160;&#160;&#160;</text><text class="terminal-1505048152-r7" x="719.8" y="459.2" textLength="97.6" clip-path="url(#terminal-1505048152-line-18)">&#160;·&#160;&#160;&#160;&#160;&#160;&#160;</text><text class="terminal-1505048152-r2" x="1061.4" y="459.2" textLength="12.2" clip-path="url(#terminal-1505048152-line-18)">│</text><text class="terminal-1505048152-r1" x="1366.4" y="459.2" textLength="12.2" clip-path="url(#terminal-1505048152-line-18)">
</text><text class="terminal-1505048152-r2" x="292.8" y="483.6" textLength="12.2" clip-path="url(#terminal-1505048152-line-19)">│</text><text class="terminal-1505048152-r5" x="341.6" y="483.6" textLength="85.4" clip-path="url(#terminal-1505048152-line-19)">&#160;prod&#160;&#160;</text><text class="terminal-1505048152-r8" x="439.2" y="483.6" textLength="73.2" clip-path="url(#terminal-1505048152-line-19)">MANAGE</text><text class="terminal-1505048152-r5" x="561.2" y="483.6" textLength="73.2" clip-path="url(#terminal-1505048152-line-19)">&#160;2&#160;&#160;&#160;&#160;</text><text class="terminal-1505048152-r5" x="634.4" y="483.6" textLength="85.4" clip-path="url(#terminal-1505048152-line-19)">&#160;✓&#160;&#160;&#160;&#160;&#160;</text><text class="terminal-1505048152-r5" x="719.8" y="483.6" textLength="97.6" clip-path="url(#terminal-1505048152-line-19)">&#160;✓&#160;&#160;&#160;&#160;&#160;&#160;</text><text class="terminal-1505048152-r2" x="1061.4" y="483.6" textLength="12.2" clip-path="url(#terminal-1505048152-line-19)">│</text><text class="terminal-1505048152-r1" x="1366.4" y="483.6" textLength="12.2" clip-path="url(#terminal-1505048152-line-19)">
</text><text class="terminal-1505048152-r2" x="292.8" y="508" textLength="12.2" clip-path="url(#terminal-1505048152-line-20)">│</text><text class="terminal-1505048152-r2" x="1061.4" y="508" textLength="12.2" clip-path="url(#terminal-1505048152-line-20)">│</text><text class="terminal-1505048152-r1" x="1366.4" y="508" textLength="12.2" clip-path="url(#terminal-1505048152-line-20)">
</text><text class="terminal-1505048152-r2" x="292.8" y="532.4" textLength="12.2" clip-path="url(#terminal-1505048152-line-21)">╰</text><text class="terminal-1505048152-r2" x="305" y="532.4" textLength="756.4" clip-path="url(#terminal-1505048152-line-21)">──────────────────────────────────────────────────────────────</text><text class="terminal-1505048152-r2" x="1061.4" y="532.4" textLength="12.2" clip-path="url(#terminal-1505048152-line-21)">╯</text><text class="terminal-1505048152-r1" x="1366.4" y="532.4" textLength="12.2" clip-path="url(#terminal-1505048152-line-21)">
</text><text class="terminal-1505048152-r1" x="1366.4" y="556.8" textLength="12.2" clip-path="url(#terminal-1505048152-line-22)">
</text><text class="terminal-1505048152-r1" x="1366.4" y="581.2" textLength="12.2" clip-path="url(#terminal-1505048152-line-23)">
</text><text class="terminal-1505048152-r1" x="1366.4" y="605.6" textLength="12.2" clip-path="url(#terminal-1505048152-line-24)">
</text><text class="terminal-1505048152-r1" x="1366.4" y="630" textLength="12.2" clip-path="url(#terminal-1505048152-line-25)">
</text><text class="terminal-1505048152-r1" x="1366.4" y="654.4" textLength="12.2" clip-path="url(#terminal-1505048152-line-26)">
</text><text class="terminal-1505048152-r1" x="1366.4" y="678.8" textLength="12.2" clip-path="url(#terminal-1505048152-line-27)">
</text><text class="terminal-1505048152-r1" x="1366.4" y="703.2" textLength="12.2" clip-path="url(#terminal-1505048152-line-28)">
</text><text class="terminal-1505048152-r1" x="1366.4" y="727.6" textLength="12.2" clip-path="url(#terminal-1505048152-line-29)">
</text><text class="terminal-1505048152-r1" x="1366.4" y="752" textLength="12.2" clip-path="url(#terminal-1505048152-line-30)">
</text><text class="terminal-1505048152-r1" x="1366.4" y="776.4" textLength="12.2" clip-path="url(#terminal-1505048152-line-31)">
</text><text class="terminal-1505048152-r1" x="1366.4" y="800.8" textLength="12.2" clip-path="url(#terminal-1505048152-line-32)">
</text>
    </g>
    </g>
</svg>
