<svg class="rich-terminal" viewBox="0 0 1385 879.5999999999999" xmlns="http://www.w3.org/2000/svg">
    <!-- Generated with Rich https://www.textualize.io -->
    <style>

    @font-face {
        font-family: "Fira Code";
        src: local("FiraCode-Regular"),
                url("https://cdnjs.cloudflare.com/ajax/libs/firacode/6.2.0/woff2/FiraCode-Regular.woff2") format("woff2"),
                url("https://cdnjs.cloudflare.com/ajax/libs/firacode/6.2.0/woff/FiraCode-Regular.woff") format("woff");
        font-style: normal;
        font-weight: 400;
    }
    @font-face {
        font-family: "Fira Code";
        src: local("FiraCode-Bold"),
                url("https://cdnjs.cloudflare.com/ajax/libs/firacode/6.2.0/woff2/FiraCode-Bold.woff2") format("woff2"),
                url("https://cdnjs.cloudflare.com/ajax/libs/firacode/6.2.0/woff/FiraCode-Bold.woff") format("woff");
        font-style: bold;
        font-weight: 700;
    }

    .terminal-713147672-matrix {
        font-family: ui-monospace, SFMono-Regular, Menlo, monospace;
        font-size: 20px;
        line-height: 24.4px;
        font-variant-east-asian: full-width;
    }

    .terminal-713147672-title {
        font-size: 18px;
        font-weight: bold;
        font-family: ui-sans-serif, -apple-system, Helvetica Neue, sans-serif;
    }

    .terminal-713147672-r1 { fill: #c5c8c6 }
.terminal-713147672-r2 { fill: #26262f }
.terminal-713147672-r3 { fill: #e9e9ef;font-weight: bold }
.terminal-713147672-r4 { fill: #8b7cff }
.terminal-713147672-r5 { fill: #5fd39a }
.terminal-713147672-r6 { fill: #e1b341 }
.terminal-713147672-r7 { fill: #8a8a97 }
.terminal-713147672-r8 { fill: #8a8a97;font-weight: bold }
.terminal-713147672-r9 { fill: #0d0d11;font-weight: bold }
.terminal-713147672-r10 { fill: #e9e9ef }
    </style>

    <defs>
    <clipPath id="terminal-713147672-clip-terminal">
      <rect x="0" y="0" width="1365.3999999999999" height="828.5999999999999" />
    </clipPath>
    <clipPath id="terminal-713147672-line-0">
    <rect x="0" y="1.5" width="1366.4" height="24.65"/>
            </clipPath>
<clipPath id="terminal-713147672-line-1">
    <rect x="0" y="25.9" width="1366.4" height="24.65"/>
            </clipPath>
<clipPath id="terminal-713147672-line-2">
    <rect x="0" y="50.3" width="1366.4" height="24.65"/>
            </clipPath>
<clipPath id="terminal-713147672-line-3">
    <rect x="0" y="74.7" width="1366.4" height="24.65"/>
            </clipPath>
<clipPath id="terminal-713147672-line-4">
    <rect x="0" y="99.1" width="1366.4" height="24.65"/>
            </clipPath>
<clipPath id="terminal-713147672-line-5">
    <rect x="0" y="123.5" width="1366.4" height="24.65"/>
            </clipPath>
<clipPath id="terminal-713147672-line-6">
    <rect x="0" y="147.9" width="1366.4" height="24.65"/>
            </clipPath>
<clipPath id="terminal-713147672-line-7">
    <rect x="0" y="172.3" width="1366.4" height="24.65"/>
            </clipPath>
<clipPath id="terminal-713147672-line-8">
    <rect x="0" y="196.7" width="1366.4" height="24.65"/>
            </clipPath>
<clipPath id="terminal-713147672-line-9">
    <rect x="0" y="221.1" width="1366.4" height="24.65"/>
            </clipPath>
<clipPath id="terminal-713147672-line-10">
    <rect x="0" y="245.5" width="1366.4" height="24.65"/>
            </clipPath>
<clipPath id="terminal-713147672-line-11">
    <rect x="0" y="269.9" width="1366.4" height="24.65"/>
            </clipPath>
<clipPath id="terminal-713147672-line-12">
    <rect x="0" y="294.3" width="1366.4" height="24.65"/>
            </clipPath>
<clipPath id="terminal-713147672-line-13">
    <rect x="0" y="318.7" width="1366.4" height="24.65"/>
            </clipPath>
<clipPath id="terminal-713147672-line-14">
    <rect x="0" y="343.1" width="1366.4" height="24.65"/>
            </clipPath>
<clipPath id="terminal-713147672-line-15">
    <rect x="0" y="367.5" width="1366.4" height="24.65"/>
            </clipPath>
<clipPath id="terminal-713147672-line-16">
    <rect x="0" y="391.9" width="1366.4" height="24.65"/>
            </clipPath>
<clipPath id="terminal-713147672-line-17">
    <rect x="0" y="416.3" width="1366.4" height="24.65"/>
            </clipPath>
<clipPath id="terminal-713147672-line-18">
    <rect x="0" y="440.7" width="1366.4" height="24.65"/>
            </clipPath>
<clipPath id="terminal-713147672-line-19">
    <rect x="0" y="465.1" width="1366.4" height="24.65"/>
            </clipPath>
<clipPath id="terminal-713147672-line-20">
    <rect x="0" y="489.5" width="1366.4" height="24.65"/>
            </clipPath>
<clipPath id="terminal-713147672-line-21">
    <rect x="0" y="513.9" width="1366.4" height="24.65"/>
            </clipPath>
<clipPath id="terminal-713147672-line-22">
    <rect x="0" y="538.3" width="1366.4" height="24.65"/>
            </clipPath>
<clipPath id="terminal-713147672-line-23">
    <rect x="0" y="562.7" width="1366.4" height="24.65"/>
            </clipPath>
<clipPath id="terminal-713147672-line-24">
    <rect x="0" y="587.1" width="1366.4" height="24.65"/>
            </clipPath>
<clipPath id="terminal-713147672-line-25">
    <rect x="0" y="611.5" width="1366.4" height="24.65"/>
            </clipPath>
<clipPath id="terminal-713147672-line-26">
    <rect x="0" y="635.9" width="1366.4" height="24.65"/>
            </clipPath>
<clipPath id="terminal-713147672-line-27">
    <rect x="0" y="660.3" width="1366.4" height="24.65"/>
            </clipPath>
<clipPath id="terminal-713147672-line-28">
    <rect x="0" y="684.7" width="1366.4" height="24.65"/>
            </clipPath>
<clipPath id="terminal-713147672-line-29">
    <rect x="0" y="709.1" width="1366.4" height="24.65"/>
            </clipPath>
<clipPath id="terminal-713147672-line-30">
    <rect x="0" y="733.5" width="1366.4" height="24.65"/>
            </clipPath>
<clipPath id="terminal-713147672-line-31">
    <rect x="0" y="757.9" width="1366.4" height="24.65"/>
            </clipPath>
<clipPath id="terminal-713147672-line-32">
    <rect x="0" y="782.3" width="1366.4" height="24.65"/>
            </clipPath>
    </defs>

    <rect fill="#292929" stroke="rgba(255,255,255,0.35)" stroke-width="1" x="1" y="1" width="1383" height="877.6" rx="8"/><text class="terminal-713147672-title" fill="#c5c8c6" text-anchor="middle" x="691" y="27">Isolinear</text>
            <g transform="translate(26,22)">
            <circle cx="0" cy="0" r="7" fill="#ff5f57"/>
            <circle cx="22" cy="0" r="7" fill="#febc2e"/>
            <circle cx="44" cy="0" r="7" fill="#28c840"/>
            </g>
        
    <g transform="translate(9, 41)" clip-path="url(#terminal-713147672-clip-terminal)">
    <rect fill="#0d0d11" x="0" y="1.5" width="1366.4" height="24.65" shape-rendering="crispEdges"/><rect fill="#0d0d11" x="0" y="25.9" width="24.4" height="24.65" shape-rendering="crispEdges"/><rect fill="#0d0d11" x="24.4" y="25.9" width="1317.6" height="24.65" shape-rendering="crispEdges"/><rect fill="#0d0d11" x="1342" y="25.9" width="24.4" height="24.65" shape-rendering="crispEdges"/><rect fill="#0d0d11" x="0" y="50.3" width="24.4" height="24.65" shape-rendering="crispEdges"/><rect fill="#0d0d11" x="24.4" y="50.3" width="1317.6" height="24.65" shape-rendering="crispEdges"/><rect fill="#0d0d11" x="1342" y="50.3" width="24.4" height="24.65" shape-rendering="crispEdges"/><rect fill="#0d0d11" x="0" y="74.7" width="24.4" height="24.65" shape-rendering="crispEdges"/><rect fill="#0d0d11" x="24.4" y="74.7" width="1317.6" height="24.65" shape-rendering="crispEdges"/><rect fill="#0d0d11" x="1342" y="74.7" width="24.4" height="24.65" shape-rendering="crispEdges"/><rect fill="#0d0d11" x="0" y="99.1" width="24.4" height="24.65" shape-rendering="crispEdges"/><rect fill="#0d0d11" x="24.4" y="99.1" width="1317.6" height="24.65" shape-rendering="crispEdges"/><rect fill="#0d0d11" x="1342" y="99.1" width="24.4" height="24.65" shape-rendering="crispEdges"/><rect fill="#0d0d11" x="0" y="123.5" width="24.4" height="24.65" shape-rendering="crispEdges"/><rect fill="#0d0d11" x="24.4" y="123.5" width="1317.6" height="24.65" shape-rendering="crispEdges"/><rect fill="#0d0d11" x="1342" y="123.5" width="24.4" height="24.65" shape-rendering="crispEdges"/><rect fill="#0d0d11" x="0" y="147.9" width="24.4" height="24.65" shape-rendering="crispEdges"/><rect fill="#0d0d11" x="24.4" y="147.9" width="1317.6" height="24.65" shape-rendering="crispEdges"/><rect fill="#0d0d11" x="1342" y="147.9" width="24.4" height="24.65" shape-rendering="crispEdges"/><rect fill="#0d0d11" x="0" y="172.3" width="24.4" height="24.65" shape-rendering="crispEdges"/><rect fill="#0d0d11" x="24.4" y="172.3" width="1317.6" height="24.65" shape-rendering="crispEdges"/><rect fill="#0d0d11" x="1342" y="172.3" width="24.4" height="24.65" shape-rendering="crispEdges"/><rect fill="#0d0d11" x="0" y="196.7" width="24.4" height="24.65" shape-rendering="crispEdges"/><rect fill="#0d0d11" x="24.4" y="196.7" width="219.6" height="24.65" shape-rendering="crispEdges"/><rect fill="#0d0d11" x="244" y="196.7" width="12.2" height="24.65" shape-rendering="crispEdges"/><rect fill="#0d0d11" x="256.2" y="196.7" width="854" height="24.65" shape-rendering="crispEdges"/><rect fill="#0d0d11" x="1110.2" y="196.7" width="12.2" height="24.65" shape-rendering="crispEdges"/><rect fill="#0d0d11" x="1122.4" y="196.7" width="219.6" height="24.65" shape-rendering="crispEdges"/><rect fill="#0d0d11" x="1342" y="196.7" width="24.4" height="24.65" shape-rendering="crispEdges"/><rect fill="#0d0d11" x="0" y="221.1" width="24.4" height="24.65" shape-rendering="crispEdges"/><rect fill="#0d0d11" x="24.4" y="221.1" width="219.6" height="24.65" shape-rendering="crispEdges"/><rect fill="#0d0d11" x="244" y="221.1" width="12.2" height="24.65" shape-rendering="crispEdges"/><rect fill="#0d0d11" x="256.2" y="221.1" width="854" height="24.65" shape-rendering="crispEdges"/><rect fill="#0d0d11" x="1110.2" y="221.1" width="12.2" height="24.65" shape-rendering="crispEdges"/><rect fill="#0d0d11" x="1122.4" y="221.1" width="219.6" height="24.65" shape-rendering="crispEdges"/><rect fill="#0d0d11" x="1342" y="221.1" width="24.4" height="24.65" shape-rendering="crispEdges"/><rect fill="#0d0d11" x="0" y="245.5" width="24.4" height="24.65" shape-rendering="crispEdges"/><rect fill="#0d0d11" x="24.4" y="245.5" width="219.6" height="24.65" shape-rendering="crispEdges"/><rect fill="#0d0d11" x="244" y="245.5" width="12.2" height="24.65" shape-rendering="crispEdges"/><rect fill="#0d0d11" x="256.2" y="245.5" width="854" height="24.65" shape-rendering="crispEdges"/><rect fill="#0d0d11" x="1110.2" y="245.5" width="12.2" height="24.65" shape-rendering="crispEdges"/><rect fill="#0d0d11" x="1122.4" y="245.5" width="219.6" height="24.65" shape-rendering="crispEdges"/><rect fill="#0d0d11" x="1342" y="245.5" width="24.4" height="24.65" shape-rendering="crispEdges"/><rect fill="#0d0d11" x="0" y="269.9" width="24.4" height="24.65" shape-rendering="crispEdges"/><rect fill="#0d0d11" x="24.4" y="269.9" width="219.6" height="24.65" shape-rendering="crispEdges"/><rect fill="#0d0d11" x="244" y="269.9" width="12.2" height="24.65" shape-rendering="crispEdges"/><rect fill="#0d0d11" x="256.2" y="269.9" width="48.8" height="24.65" shape-rendering="crispEdges"/><rect fill="#0d0d11" x="305" y="269.9" width="317.2" height="24.65" shape-rendering="crispEdges"/><rect fill="#0d0d11" x="622.2" y="269.9" width="109.8" height="24.65" shape-rendering="crispEdges"/><rect fill="#0d0d11" x="732" y="269.9" width="329.4" height="24.65" shape-rendering="crispEdges"/><rect fill="#0d0d11" x="1061.4" y="269.9" width="48.8" height="24.65" shape-rendering="crispEdges"/><rect fill="#0d0d11" x="1110.2" y="269.9" width="12.2" height="24.65" shape-rendering="crispEdges"/><rect fill="#0d0d11" x="1122.4" y="269.9" width="219.6" height="24.65" shape-rendering="crispEdges"/><rect fill="#0d0d11" x="1342" y="269.9" width="24.4" height="24.65" shape-rendering="crispEdges"/><rect fill="#0d0d11" x="0" y="294.3" width="24.4" height="24.65" shape-rendering="crispEdges"/><rect fill="#0d0d11" x="24.4" y="294.3" width="219.6" height="24.65" shape-rendering="crispEdges"/><rect fill="#0d0d11" x="244" y="294.3" width="12.2" height="24.65" shape-rendering="crispEdges"/><rect fill="#0d0d11" x="256.2" y="294.3" width="48.8" height="24.65" shape-rendering="crispEdges"/><rect fill="#0d0d11" x="305" y="294.3" width="341.6" height="24.65" shape-rendering="crispEdges"/><rect fill="#0d0d11" x="646.6" y="294.3" width="24.4" height="24.65" shape-rendering="crispEdges"/><rect fill="#0d0d11" x="671" y="294.3" width="24.4" height="24.65" shape-rendering="crispEdges"/><rect fill="#0d0d11" x="695.4" y="294.3" width="24.4" height="24.65" shape-rendering="crispEdges"/><rect fill="#0d0d11" x="719.8" y="294.3" width="341.6" height="24.65" shape-rendering="crispEdges"/><rect fill="#0d0d11" x="1061.4" y="294.3" width="48.8" height="24.65" shape-rendering="crispEdges"/><rect fill="#0d0d11" x="1110.2" y="294.3" width="12.2" height="24.65" shape-rendering="crispEdges"/><rect fill="#0d0d11" x="1122.4" y="294.3" width="219.6" height="24.65" shape-rendering="crispEdges"/><rect fill="#0d0d11" x="1342" y="294.3" width="24.4" height="24.65" shape-rendering="crispEdges"/><rect fill="#0d0d11" x="0" y="318.7" width="24.4" height="24.65" shape-rendering="crispEdges"/><rect fill="#0d0d11" x="24.4" y="318.7" width="219.6" height="24.65" shape-rendering="crispEdges"/><rect fill="#0d0d11" x="244" y="318.7" width="12.2" height="24.65" shape-rendering="crispEdges"/><rect fill="#0d0d11" x="256.2" y="318.7" width="48.8" height="24.65" shape-rendering="crispEdges"/><rect fill="#0d0d11" x="305" y="318.7" width="756.4" height="24.65" shape-rendering="crispEdges"/><rect fill="#0d0d11" x="1061.4" y="318.7" width="48.8" height="24.65" shape-rendering="crispEdges"/><rect fill="#0d0d11" x="1110.2" y="318.7" width="12.2" height="24.65" shape-rendering="crispEdges"/><rect fill="#0d0d11" x="1122.4" y="318.7" width="219.6" height="24.65" shape-rendering="crispEdges"/><rect fill="#0d0d11" x="1342" y="318.7" width="24.4" height="24.65" shape-rendering="crispEdges"/><rect fill="#0d0d11" x="0" y="343.1" width="24.4" height="24.65" shape-rendering="crispEdges"/><rect fill="#0d0d11" x="24.4" y="343.1" width="219.6" height="24.65" shape-rendering="crispEdges"/><rect fill="#0d0d11" x="244" y="343.1" width="12.2" height="24.65" shape-rendering="crispEdges"/><rect fill="#0d0d11" x="256.2" y="343.1" width="48.8" height="24.65" shape-rendering="crispEdges"/><rect fill="#0d0d11" x="305" y="343.1" width="207.4" height="24.65" shape-rendering="crispEdges"/><rect fill="#0d0d11" x="512.4" y="343.1" width="341.6" height="24.65" shape-rendering="crispEdges"/><rect fill="#0d0d11" x="854" y="343.1" width="207.4" height="24.65" shape-rendering="crispEdges"/><rect fill="#0d0d11" x="1061.4" y="343.1" width="48.8" height="24.65" shape-rendering="crispEdges"/><rect fill="#0d0d11" x="1110.2" y="343.1" width="12.2" height="24.65" shape-rendering="crispEdges"/><rect fill="#0d0d11" x="1122.4" y="343.1" width="219.6" height="24.65" shape-rendering="crispEdges"/><rect fill="#0d0d11" x="1342" y="343.1" width="24.4" height="24.65" shape-rendering="crispEdges"/><rect fill="#0d0d11" x="0" y="367.5" width="24.4" height="24.65" shape-rendering="crispEdges"/><rect fill="#0d0d11" x="24.4" y="367.5" width="219.6" height="24.65" shape-rendering="crispEdges"/><rect fill="#0d0d11" x="244" y="367.5" width="12.2" height="24.65" shape-rendering="crispEdges"/><rect fill="#0d0d11" x="256.2" y="367.5" width="48.8" height="24.65" shape-rendering="crispEdges"/><rect fill="#0d0d11" x="305" y="367.5" width="756.4" height="24.65" shape-rendering="crispEdges"/><rect fill="#0d0d11" x="1061.4" y="367.5" width="48.8" height="24.65" shape-rendering="crispEdges"/><rect fill="#0d0d11" x="1110.2" y="367.5" width="12.2" height="24.65" shape-rendering="crispEdges"/><rect fill="#0d0d11" x="1122.4" y="367.5" width="219.6" height="24.65" shape-rendering="crispEdges"/><rect fill="#0d0d11" x="1342" y="367.5" width="24.4" height="24.65" shape-rendering="crispEdges"/><rect fill="#0d0d11" x="0" y="391.9" width="24.4" height="24.65" shape-rendering="crispEdges"/><rect fill="#0d0d11" x="24.4" y="391.9" width="219.6" height="24.65" shape-rendering="crispEdges"/><rect fill="#0d0d11" x="244" y="391.9" width="12.2" height="24.65" shape-rendering="crispEdges"/><rect fill="#0d0d11" x="256.2" y="391.9" width="48.8" height="24.65" shape-rendering="crispEdges"/><rect fill="#0d0d11" x="305" y="391.9" width="134.2" height="24.65" shape-rendering="crispEdges"/><rect fill="#0d0d11" x="439.2" y="391.9" width="622.2" height="24.65" shape-rendering="crispEdges"/><rect fill="#0d0d11" x="1061.4" y="391.9" width="48.8" height="24.65" shape-rendering="crispEdges"/><rect fill="#0d0d11" x="1110.2" y="391.9" width="12.2" height="24.65" shape-rendering="crispEdges"/><rect fill="#0d0d11" x="1122.4" y="391.9" width="219.6" height="24.65" shape-rendering="crispEdges"/><rect fill="#0d0d11" x="1342" y="391.9" width="24.4" height="24.65" shape-rendering="crispEdges"/><rect fill="#0d0d11" x="0" y="416.3" width="24.4" height="24.65" shape-rendering="crispEdges"/><rect fill="#0d0d11" x="24.4" y="416.3" width="219.6" height="24.65" shape-rendering="crispEdges"/><rect fill="#0d0d11" x="244" y="416.3" width="12.2" height="24.65" shape-rendering="crispEdges"/><rect fill="#0d0d11" x="256.2" y="416.3" width="48.8" height="24.65" shape-rendering="crispEdges"/><rect fill="#0d0d11" x="305" y="416.3" width="475.8" height="24.65" shape-rendering="crispEdges"/><rect fill="#0d0d11" x="780.8" y="416.3" width="280.6" height="24.65" shape-rendering="crispEdges"/><rect fill="#0d0d11" x="1061.4" y="416.3" width="48.8" height="24.65" shape-rendering="crispEdges"/><rect fill="#0d0d11" x="1110.2" y="416.3" width="12.2" height="24.65" shape-rendering="crispEdges"/><rect fill="#0d0d11" x="1122.4" y="416.3" width="219.6" height="24.65" shape-rendering="crispEdges"/><rect fill="#0d0d11" x="1342" y="416.3" width="24.4" height="24.65" shape-rendering="crispEdges"/><rect fill="#0d0d11" x="0" y="440.7" width="24.4" height="24.65" shape-rendering="crispEdges"/><rect fill="#0d0d11" x="24.4" y="440.7" width="219.6" height="24.65" shape-rendering="crispEdges"/><rect fill="#0d0d11" x="244" y="440.7" width="12.2" height="24.65" shape-rendering="crispEdges"/><rect fill="#0d0d11" x="256.2" y="440.7" width="48.8" height="24.65" shape-rendering="crispEdges"/><rect fill="#0d0d11" x="305" y="440.7" width="475.8" height="24.65" shape-rendering="crispEdges"/><rect fill="#0d0d11" x="780.8" y="440.7" width="280.6" height="24.65" shape-rendering="crispEdges"/><rect fill="#0d0d11" x="1061.4" y="440.7" width="48.8" height="24.65" shape-rendering="crispEdges"/><rect fill="#0d0d11" x="1110.2" y="440.7" width="12.2" height="24.65" shape-rendering="crispEdges"/><rect fill="#0d0d11" x="1122.4" y="440.7" width="219.6" height="24.65" shape-rendering="crispEdges"/><rect fill="#0d0d11" x="1342" y="440.7" width="24.4" height="24.65" shape-rendering="crispEdges"/><rect fill="#0d0d11" x="0" y="465.1" width="24.4" height="24.65" shape-rendering="crispEdges"/><rect fill="#0d0d11" x="24.4" y="465.1" width="219.6" height="24.65" shape-rendering="crispEdges"/><rect fill="#0d0d11" x="244" y="465.1" width="12.2" height="24.65" shape-rendering="crispEdges"/><rect fill="#0d0d11" x="256.2" y="465.1" width="48.8" height="24.65" shape-rendering="crispEdges"/><rect fill="#0d0d11" x="305" y="465.1" width="756.4" height="24.65" shape-rendering="crispEdges"/><rect fill="#0d0d11" x="1061.4" y="465.1" width="48.8" height="24.65" shape-rendering="crispEdges"/><rect fill="#0d0d11" x="1110.2" y="465.1" width="12.2" height="24.65" shape-rendering="crispEdges"/><rect fill="#0d0d11" x="1122.4" y="465.1" width="219.6" height="24.65" shape-rendering="crispEdges"/><rect fill="#0d0d11" x="1342" y="465.1" width="24.4" height="24.65" shape-rendering="crispEdges"/><rect fill="#0d0d11" x="0" y="489.5" width="24.4" height="24.65" shape-rendering="crispEdges"/><rect fill="#0d0d11" x="24.4" y="489.5" width="219.6" height="24.65" shape-rendering="crispEdges"/><rect fill="#0d0d11" x="244" y="489.5" width="12.2" height="24.65" shape-rendering="crispEdges"/><rect fill="#0d0d11" x="256.2" y="489.5" width="48.8" height="24.65" shape-rendering="crispEdges"/><rect fill="#0d0d11" x="305" y="489.5" width="207.4" height="24.65" shape-rendering="crispEdges"/><rect fill="#a493fe" x="512.4" y="489.5" width="24.4" height="24.65" shape-rendering="crispEdges"/><rect fill="#a493fe" x="536.8" y="489.5" width="146.4" height="24.65" shape-rendering="crispEdges"/><rect fill="#a493fe" x="683.2" y="489.5" width="24.4" height="24.65" shape-rendering="crispEdges"/><rect fill="#0d0d11" x="707.6" y="489.5" width="12.2" height="24.65" shape-rendering="crispEdges"/><rect fill="#1c1c24" x="719.8" y="489.5" width="24.4" height="24.65" shape-rendering="crispEdges"/><rect fill="#1c1c24" x="744.2" y="489.5" width="73.2" height="24.65" shape-rendering="crispEdges"/><rect fill="#1c1c24" x="817.4" y="489.5" width="24.4" height="24.65" shape-rendering="crispEdges"/><rect fill="#0d0d11" x="841.8" y="489.5" width="219.6" height="24.65" shape-rendering="crispEdges"/><rect fill="#0d0d11" x="1061.4" y="489.5" width="48.8" height="24.65" shape-rendering="crispEdges"/><rect fill="#0d0d11" x="1110.2" y="489.5" width="12.2" height="24.65" shape-rendering="crispEdges"/><rect fill="#0d0d11" x="1122.4" y="489.5" width="219.6" height="24.65" shape-rendering="crispEdges"/><rect fill="#0d0d11" x="1342" y="489.5" width="24.4" height="24.65" shape-rendering="crispEdges"/><rect fill="#0d0d11" x="0" y="513.9" width="24.4" height="24.65" shape-rendering="crispEdges"/><rect fill="#0d0d11" x="24.4" y="513.9" width="219.6" height="24.65" shape-rendering="crispEdges"/><rect fill="#0d0d11" x="244" y="513.9" width="12.2" height="24.65" shape-rendering="crispEdges"/><rect fill="#0d0d11" x="256.2" y="513.9" width="48.8" height="24.65" shape-rendering="crispEdges"/><rect fill="#0d0d11" x="305" y="513.9" width="756.4" height="24.65" shape-rendering="crispEdges"/><rect fill="#0d0d11" x="1061.4" y="513.9" width="48.8" height="24.65" shape-rendering="crispEdges"/><rect fill="#0d0d11" x="1110.2" y="513.9" width="12.2" height="24.65" shape-rendering="crispEdges"/><rect fill="#0d0d11" x="1122.4" y="513.9" width="219.6" height="24.65" shape-rendering="crispEdges"/><rect fill="#0d0d11" x="1342" y="513.9" width="24.4" height="24.65" shape-rendering="crispEdges"/><rect fill="#0d0d11" x="0" y="538.3" width="24.4" height="24.65" shape-rendering="crispEdges"/><rect fill="#0d0d11" x="24.4" y="538.3" width="219.6" height="24.65" shape-rendering="crispEdges"/><rect fill="#0d0d11" x="244" y="538.3" width="12.2" height="24.65" shape-rendering="crispEdges"/><rect fill="#0d0d11" x="256.2" y="538.3" width="48.8" height="24.65" shape-rendering="crispEdges"/><rect fill="#0d0d11" x="305" y="538.3" width="378.2" height="24.65" shape-rendering="crispEdges"/><rect fill="#0d0d11" x="683.2" y="538.3" width="0" height="24.65" shape-rendering="crispEdges"/><rect fill="#0d0d11" x="683.2" y="538.3" width="378.2" height="24.65" shape-rendering="crispEdges"/><rect fill="#0d0d11" x="1061.4" y="538.3" width="48.8" height="24.65" shape-rendering="crispEdges"/><rect fill="#0d0d11" x="1110.2" y="538.3" width="12.2" height="24.65" shape-rendering="crispEdges"/><rect fill="#0d0d11" x="1122.4" y="538.3" width="219.6" height="24.65" shape-rendering="crispEdges"/><rect fill="#0d0d11" x="1342" y="538.3" width="24.4" height="24.65" shape-rendering="crispEdges"/><rect fill="#0d0d11" x="0" y="562.7" width="24.4" height="24.65" shape-rendering="crispEdges"/><rect fill="#0d0d11" x="24.4" y="562.7" width="219.6" height="24.65" shape-rendering="crispEdges"/><rect fill="#0d0d11" x="244" y="562.7" width="12.2" height="24.65" shape-rendering="crispEdges"/><rect fill="#0d0d11" x="256.2" y="562.7" width="854" height="24.65" shape-rendering="crispEdges"/><rect fill="#0d0d11" x="1110.2" y="562.7" width="12.2" height="24.65" shape-rendering="crispEdges"/><rect fill="#0d0d11" x="1122.4" y="562.7" width="219.6" height="24.65" shape-rendering="crispEdges"/><rect fill="#0d0d11" x="1342" y="562.7" width="24.4" height="24.65" shape-rendering="crispEdges"/><rect fill="#0d0d11" x="0" y="587.1" width="24.4" height="24.65" shape-rendering="crispEdges"/><rect fill="#0d0d11" x="24.4" y="587.1" width="219.6" height="24.65" shape-rendering="crispEdges"/><rect fill="#0d0d11" x="244" y="587.1" width="12.2" height="24.65" shape-rendering="crispEdges"/><rect fill="#0d0d11" x="256.2" y="587.1" width="854" height="24.65" shape-rendering="crispEdges"/><rect fill="#0d0d11" x="1110.2" y="587.1" width="12.2" height="24.65" shape-rendering="crispEdges"/><rect fill="#0d0d11" x="1122.4" y="587.1" width="219.6" height="24.65" shape-rendering="crispEdges"/><rect fill="#0d0d11" x="1342" y="587.1" width="24.4" height="24.65" shape-rendering="crispEdges"/><rect fill="#0d0d11" x="0" y="611.5" width="24.4" height="24.65" shape-rendering="crispEdges"/><rect fill="#0d0d11" x="24.4" y="611.5" width="219.6" height="24.65" shape-rendering="crispEdges"/><rect fill="#0d0d11" x="244" y="611.5" width="12.2" height="24.65" shape-rendering="crispEdges"/><rect fill="#0d0d11" x="256.2" y="611.5" width="854" height="24.65" shape-rendering="crispEdges"/><rect fill="#0d0d11" x="1110.2" y="611.5" width="12.2" height="24.65" shape-rendering="crispEdges"/><rect fill="#0d0d11" x="1122.4" y="611.5" width="219.6" height="24.65" shape-rendering="crispEdges"/><rect fill="#0d0d11" x="1342" y="611.5" width="24.4" height="24.65" shape-rendering="crispEdges"/><rect fill="#0d0d11" x="0" y="635.9" width="24.4" height="24.65" shape-rendering="crispEdges"/><rect fill="#0d0d11" x="24.4" y="635.9" width="1317.6" height="24.65" shape-rendering="crispEdges"/><rect fill="#0d0d11" x="1342" y="635.9" width="24.4" height="24.65" shape-rendering="crispEdges"/><rect fill="#0d0d11" x="0" y="660.3" width="24.4" height="24.65" shape-rendering="crispEdges"/><rect fill="#0d0d11" x="24.4" y="660.3" width="1317.6" height="24.65" shape-rendering="crispEdges"/><rect fill="#0d0d11" x="1342" y="660.3" width="24.4" height="24.65" shape-rendering="crispEdges"/><rect fill="#0d0d11" x="0" y="684.7" width="24.4" height="24.65" shape-rendering="crispEdges"/><rect fill="#0d0d11" x="24.4" y="684.7" width="1317.6" height="24.65" shape-rendering="crispEdges"/><rect fill="#0d0d11" x="1342" y="684.7" width="24.4" height="24.65" shape-rendering="crispEdges"/><rect fill="#0d0d11" x="0" y="709.1" width="24.4" height="24.65" shape-rendering="crispEdges"/><rect fill="#0d0d11" x="24.4" y="709.1" width="1317.6" height="24.65" shape-rendering="crispEdges"/><rect fill="#0d0d11" x="1342" y="709.1" width="24.4" height="24.65" shape-rendering="crispEdges"/><rect fill="#0d0d11" x="0" y="733.5" width="24.4" height="24.65" shape-rendering="crispEdges"/><rect fill="#0d0d11" x="24.4" y="733.5" width="1317.6" height="24.65" shape-rendering="crispEdges"/><rect fill="#0d0d11" x="1342" y="733.5" width="24.4" height="24.65" shape-rendering="crispEdges"/><rect fill="#0d0d11" x="0" y="757.9" width="24.4" height="24.65" shape-rendering="crispEdges"/><rect fill="#0d0d11" x="24.4" y="757.9" width="1317.6" height="24.65" shape-rendering="crispEdges"/><rect fill="#0d0d11" x="1342" y="757.9" width="24.4" height="24.65" shape-rendering="crispEdges"/><rect fill="#0d0d11" x="0" y="782.3" width="24.4" height="24.65" shape-rendering="crispEdges"/><rect fill="#0d0d11" x="24.4" y="782.3" width="1317.6" height="24.65" shape-rendering="crispEdges"/><rect fill="#0d0d11" x="1342" y="782.3" width="24.4" height="24.65" shape-rendering="crispEdges"/><rect fill="#0d0d11" x="0" y="806.7" width="1366.4" height="24.65" shape-rendering="crispEdges"/>
    <g class="terminal-713147672-matrix">
    <text class="terminal-713147672-r1" x="1366.4" y="20" textLength="12.2" clip-path="url(#terminal-713147672-line-0)">
</text><text class="terminal-713147672-r1" x="1366.4" y="44.4" textLength="12.2" clip-path="url(#terminal-713147672-line-1)">
</text><text class="terminal-713147672-r1" x="1366.4" y="68.8" textLength="12.2" clip-path="url(#terminal-713147672-line-2)">
</text><text class="terminal-713147672-r1" x="1366.4" y="93.2" textLength="12.2" clip-path="url(#terminal-713147672-line-3)">
</text><text class="terminal-713147672-r1" x="1366.4" y="117.6" textLength="12.2" clip-path="url(#terminal-713147672-line-4)">
</text><text class="terminal-713147672-r1" x="1366.4" y="142" textLength="12.2" clip-path="url(#terminal-713147672-line-5)">
</text><text class="terminal-713147672-r1" x="1366.4" y="166.4" textLength="12.2" clip-path="url(#terminal-713147672-line-6)">
</text><text class="terminal-713147672-r1" x="1366.4" y="190.8" textLength="12.2" clip-path="url(#terminal-713147672-line-7)">
</text><text class="terminal-713147672-r2" x="244" y="215.2" textLength="12.2" clip-path="url(#terminal-713147672-line-8)">╭</text><text class="terminal-713147672-r2" x="256.2" y="215.2" textLength="854" clip-path="url(#terminal-713147672-line-8)">──────────────────────────────────────────────────────────────────────</text><text class="terminal-713147672-r2" x="1110.2" y="215.2" textLength="12.2" clip-path="url(#terminal-713147672-line-8)">╮</text><text class="terminal-713147672-r1" x="1366.4" y="215.2" textLength="12.2" clip-path="url(#terminal-713147672-line-8)">
</text><text class="terminal-713147672-r2" x="244" y="239.6" textLength="12.2" clip-path="url(#terminal-713147672-line-9)">│</text><text class="terminal-713147672-r2" x="1110.2" y="239.6" textLength="12.2" clip-path="url(#terminal-713147672-line-9)">│</text><text class="terminal-713147672-r1" x="1366.4" y="239.6" textLength="12.2" clip-path="url(#terminal-713147672-line-9)">
</text><text class="terminal-713147672-r2" x="244" y="264" textLength="12.2" clip-path="url(#terminal-713147672-line-10)">│</text><text class="terminal-713147672-r2" x="1110.2" y="264" textLength="12.2" clip-path="url(#terminal-713147672-line-10)">│</text><text class="terminal-713147672-r1" x="1366.4" y="264" textLength="12.2" clip-path="url(#terminal-713147672-line-10)">
</text><text class="terminal-713147672-r2" x="244" y="288.4" textLength="12.2" clip-path="url(#terminal-713147672-line-11)">│</text><text class="terminal-713147672-r3" x="622.2" y="288.4" textLength="109.8" clip-path="url(#terminal-713147672-line-11)">Isolinear</text><text class="terminal-713147672-r2" x="1110.2" y="288.4" textLength="12.2" clip-path="url(#terminal-713147672-line-11)">│</text><text class="terminal-713147672-r1" x="1366.4" y="288.4" textLength="12.2" clip-path="url(#terminal-713147672-line-11)">
</text><text class="terminal-713147672-r2" x="244" y="312.8" textLength="12.2" clip-path="url(#terminal-713147672-line-12)">│</text><text class="terminal-713147672-r4" x="646.6" y="312.8" textLength="24.4" clip-path="url(#terminal-713147672-line-12)">▂▂</text><text class="terminal-713147672-r5" x="671" y="312.8" textLength="24.4" clip-path="url(#terminal-713147672-line-12)">▂▂</text><text class="terminal-713147672-r6" x="695.4" y="312.8" textLength="24.4" clip-path="url(#terminal-713147672-line-12)">▂▂</text><text class="terminal-713147672-r2" x="1110.2" y="312.8" textLength="12.2" clip-path="url(#terminal-713147672-line-12)">│</text><text class="terminal-713147672-r1" x="1366.4" y="312.8" textLength="12.2" clip-path="url(#terminal-713147672-line-12)">
</text><text class="terminal-713147672-r2" x="244" y="337.2" textLength="12.2" clip-path="url(#terminal-713147672-line-13)">│</text><text class="terminal-713147672-r2" x="1110.2" y="337.2" textLength="12.2" clip-path="url(#terminal-713147672-line-13)">│</text><text class="terminal-713147672-r1" x="1366.4" y="337.2" textLength="12.2" clip-path="url(#terminal-713147672-line-13)">
</text><text class="terminal-713147672-r2" x="244" y="361.6" textLength="12.2" clip-path="url(#terminal-713147672-line-14)">│</text><text class="terminal-713147672-r7" x="512.4" y="361.6" textLength="341.6" clip-path="url(#terminal-713147672-line-14)">Databricks&#160;secret&#160;management</text><text class="terminal-713147672-r2" x="1110.2" y="361.6" textLength="12.2" clip-path="url(#terminal-713147672-line-14)">│</text><text class="terminal-713147672-r1" x="1366.4" y="361.6" textLength="12.2" clip-path="url(#terminal-713147672-line-14)">
</text><text class="terminal-713147672-r2" x="244" y="386" textLength="12.2" clip-path="url(#terminal-713147672-line-15)">│</text><text class="terminal-713147672-r2" x="1110.2" y="386" textLength="12.2" clip-path="url(#terminal-713147672-line-15)">│</text><text class="terminal-713147672-r1" x="1366.4" y="386" textLength="12.2" clip-path="url(#terminal-713147672-line-15)">
</text><text class="terminal-713147672-r2" x="244" y="410.4" textLength="12.2" clip-path="url(#terminal-713147672-line-16)">│</text><text class="terminal-713147672-r8" x="305" y="410.4" textLength="134.2" clip-path="url(#terminal-713147672-line-16)">GET&#160;STARTED</text><text class="terminal-713147672-r2" x="1110.2" y="410.4" textLength="12.2" clip-path="url(#terminal-713147672-line-16)">│</text><text class="terminal-713147672-r1" x="1366.4" y="410.4" textLength="12.2" clip-path="url(#terminal-713147672-line-16)">
</text><text class="terminal-713147672-r2" x="244" y="434.8" textLength="12.2" clip-path="url(#terminal-713147672-line-17)">│</text><text class="terminal-713147672-r7" x="305" y="434.8" textLength="475.8" clip-path="url(#terminal-713147672-line-17)">No&#160;bundle&#160;or&#160;saved&#160;profiles&#160;found&#160;here.</text><text class="terminal-713147672-r2" x="1110.2" y="434.8" textLength="12.2" clip-path="url(#terminal-713147672-line-17)">│</text><text class="terminal-713147672-r1" x="1366.4" y="434.8" textLength="12.2" clip-path="url(#terminal-713147672-line-17)">
</text><text class="terminal-713147672-r2" x="244" y="459.2" textLength="12.2" clip-path="url(#terminal-713147672-line-18)">│</text><text class="terminal-713147672-r7" x="305" y="459.2" textLength="475.8" clip-path="url(#terminal-713147672-line-18)">Connect&#160;to&#160;a&#160;workspace&#160;by&#160;URL&#160;to&#160;begin.</text><text class="terminal-713147672-r2" x="1110.2" y="459.2" textLength="12.2" clip-path="url(#terminal-713147672-line-18)">│</text><text class="terminal-713147672-r1" x="1366.4" y="459.2" textLength="12.2" clip-path="url(#terminal-713147672-line-18)">
</text><text class="terminal-713147672-r2" x="244" y="483.6" textLength="12.2" clip-path="url(#terminal-713147672-line-19)">│</text><text class="terminal-713147672-r2" x="1110.2" y="483.6" textLength="12.2" clip-path="url(#terminal-713147672-line-19)">│</text><text class="terminal-713147672-r1" x="1366.4" y="483.6" textLength="12.2" clip-path="url(#terminal-713147672-line-19)">
</text><text class="terminal-713147672-r2" x="244" y="508" textLength="12.2" clip-path="url(#terminal-713147672-line-20)">│</text><text class="terminal-713147672-r9" x="536.8" y="508" textLength="146.4" clip-path="url(#terminal-713147672-line-20)">&#160;Add&#160;by&#160;URL&#160;</text><text class="terminal-713147672-r3" x="744.2" y="508" textLength="73.2" clip-path="url(#terminal-713147672-line-20)">&#160;Quit&#160;</text><text class="terminal-713147672-r2" x="1110.2" y="508" textLength="12.2" clip-path="url(#terminal-713147672-line-20)">│</text><text class="terminal-713147672-r1" x="1366.4" y="508" textLength="12.2" clip-path="url(#terminal-713147672-line-20)">
</text><text class="terminal-713147672-r2" x="244" y="532.4" textLength="12.2" clip-path="url(#terminal-713147672-line-21)">│</text><text class="terminal-713147672-r2" x="1110.2" y="532.4" textLength="12.2" clip-path="url(#terminal-713147672-line-21)">│</text><text class="terminal-713147672-r1" x="1366.4" y="532.4" textLength="12.2" clip-path="url(#terminal-713147672-line-21)">
</text><text class="terminal-713147672-r2" x="244" y="556.8" textLength="12.2" clip-path="url(#terminal-713147672-line-22)">│</text><text class="terminal-713147672-r2" x="1110.2" y="556.8" textLength="12.2" clip-path="url(#terminal-713147672-line-22)">│</text><text class="terminal-713147672-r1" x="1366.4" y="556.8" textLength="12.2" clip-path="url(#terminal-713147672-line-22)">
</text><text class="terminal-713147672-r2" x="244" y="581.2" textLength="12.2" clip-path="url(#terminal-713147672-line-23)">│</text><text class="terminal-713147672-r2" x="1110.2" y="581.2" textLength="12.2" clip-path="url(#terminal-713147672-line-23)">│</text><text class="terminal-713147672-r1" x="1366.4" y="581.2" textLength="12.2" clip-path="url(#terminal-713147672-line-23)">
</text><text class="terminal-713147672-r2" x="244" y="605.6" textLength="12.2" clip-path="url(#terminal-713147672-line-24)">│</text><text class="terminal-713147672-r2" x="1110.2" y="605.6" textLength="12.2" clip-path="url(#terminal-713147672-line-24)">│</text><text class="terminal-713147672-r1" x="1366.4" y="605.6" textLength="12.2" clip-path="url(#terminal-713147672-line-24)">
</text><text class="terminal-713147672-r2" x="244" y="630" textLength="12.2" clip-path="url(#terminal-713147672-line-25)">╰</text><text class="terminal-713147672-r2" x="256.2" y="630" textLength="854" clip-path="url(#terminal-713147672-line-25)">──────────────────────────────────────────────────────────────────────</text><text class="terminal-713147672-r2" x="1110.2" y="630" textLength="12.2" clip-path="url(#terminal-713147672-line-25)">╯</text><text class="terminal-713147672-r1" x="1366.4" y="630" textLength="12.2" clip-path="url(#terminal-713147672-line-25)">
</text><text class="terminal-713147672-r1" x="1366.4" y="654.4" textLength="12.2" clip-path="url(#terminal-713147672-line-26)">
</text><text class="terminal-713147672-r1" x="1366.4" y="678.8" textLength="12.2" clip-path="url(#terminal-713147672-line-27)">
</text><text class="terminal-713147672-r1" x="1366.4" y="703.2" textLength="12.2" clip-path="url(#terminal-713147672-line-28)">
</text><text class="terminal-713147672-r1" x="1366.4" y="727.6" textLength="12.2" clip-path="url(#terminal-713147672-line-29)">
</text><text class="terminal-713147672-r1" x="1366.4" y="752" textLength="12.2" clip-path="url(#terminal-713147672-line-30)">
</text><text class="terminal-713147672-r1" x="1366.4" y="776.4" textLength="12.2" clip-path="url(#terminal-713147672-line-31)">
</text><text class="terminal-713147672-r1" x="1366.4" y="800.8" textLength="12.2" clip-path="url(#terminal-713147672-line-32)">
</text>
    </g>
    </g>
</svg>
